{"glyphs":{"0":{"ha":950,"x_min":0,"x_max":0,"o":"m 886 486 b 475 -18 886 207 702 -18 b 64 486 248 -18 64 207 b 475 990 64 765 248 990 b 886 486 702 990 886 765 m 475 -2 b 690 486 547 -2 690 140 b 475 974 690 821 547 974 b 258 486 403 974 258 839 b 475 -2 258 140 403 -2 "},"1":{"ha":432,"x_min":0,"x_max":0,"o":"m 119 0 b 94 0 111 0 106 0 b 73 48 70 0 58 30 b 119 279 93 73 115 133 b 119 676 119 406 119 554 b 73 874 115 823 93 850 b 94 922 58 893 70 921 b 119 922 104 923 113 923 b 286 972 170 922 197 935 b 313 953 299 977 313 967 l 313 279 b 359 48 318 133 340 73 b 339 0 374 30 363 0 b 313 0 327 0 321 0 l 119 0 "},"2":{"ha":688,"x_min":0,"x_max":0,"o":"m 620 36 b 584 0 620 16 603 0 l 116 0 b 76 40 94 0 76 18 l 76 194 b 408 778 76 194 408 497 b 304 974 408 936 354 974 b 301 974 303 974 302 974 b 250 740 169 970 230 764 b 229 692 265 721 253 693 b 79 692 219 691 86 691 b 63 712 69 692 61 702 b 304 990 74 764 98 990 b 602 728 461 990 602 929 b 100 194 602 462 203 281 l 340 194 b 571 240 487 199 547 220 b 620 219 590 255 618 243 b 620 194 620 209 620 200 l 620 36 "},"3":{"ha":758,"x_min":0,"x_max":0,"o":"m 691 280 b 361 -18 691 39 518 -18 b 64 264 153 -18 62 108 b 80 280 64 273 71 280 b 230 280 87 281 220 281 b 251 232 254 279 258 255 b 361 -2 214 128 244 -2 b 497 244 413 -2 497 21 b 284 515 497 493 377 514 b 283 515 283 515 283 515 l 280 515 b 269 525 274 515 269 520 b 280 535 269 531 274 535 l 285 535 b 295 536 288 535 292 536 b 461 765 361 541 461 593 b 359 974 461 931 411 974 b 251 740 238 974 221 832 b 230 692 258 717 254 693 b 80 692 220 691 87 691 b 64 708 71 692 64 699 b 359 990 63 808 77 990 b 655 766 516 990 655 921 b 420 538 655 632 529 567 b 691 280 544 532 691 488 "},"4":{"ha":699,"x_min":0,"x_max":0,"o":"m 604 0 b 578 0 594 -1 585 0 l 385 0 b 359 0 378 0 369 -1 b 338 48 335 2 324 30 b 385 279 358 73 380 133 l 385 363 l 46 363 l 227 888 b 345 972 244 939 292 972 l 450 972 b 475 972 456 973 465 973 b 496 924 499 970 511 943 b 353 691 476 900 409 854 l 354 695 l 247 384 l 385 384 l 385 637 b 561 813 385 734 463 813 l 578 813 b 604 813 585 813 594 814 b 624 765 628 811 639 783 b 578 534 605 740 583 680 l 578 279 b 624 48 583 133 605 73 b 604 0 639 30 628 2 "},"5":{"ha":763,"x_min":0,"x_max":0,"o":"m 697 313 b 348 -18 697 112 505 -18 b 58 243 140 -18 58 108 b 97 280 58 280 88 280 b 224 280 97 280 215 281 b 245 232 248 279 256 253 b 350 -1 189 120 281 -1 b 504 244 480 -1 504 147 b 146 564 504 569 214 568 b 134 577 138 563 133 569 l 206 972 l 532 972 b 624 881 583 972 624 931 l 624 778 b 624 753 624 772 624 763 b 575 732 622 729 594 717 b 344 778 551 752 491 774 l 190 778 l 154 588 b 697 313 249 617 697 729 "},"6":{"ha":850,"x_min":0,"x_max":0,"o":"m 643 760 b 622 808 619 760 615 785 b 538 970 641 867 623 970 b 275 643 474 970 323 975 b 452 699 327 681 390 699 b 784 346 635 699 784 547 b 409 -18 784 145 659 -18 b 409 -18 409 -18 409 -18 b 409 -18 409 -18 409 -18 b 67 406 225 -18 67 92 b 538 990 67 974 354 990 b 750 864 677 990 750 941 b 643 760 750 805 685 760 m 419 681 b 272 621 370 681 315 659 b 260 406 265 560 260 489 b 409 2 260 146 332 2 b 590 346 541 2 590 156 b 419 681 590 536 572 681 "},"7":{"ha":676,"x_min":0,"x_max":0,"o":"m 382 0 b 161 0 372 -1 161 0 b 125 116 97 0 90 53 l 512 778 l 481 778 b 106 732 334 774 130 752 b 57 753 87 717 59 729 b 57 778 57 763 57 772 l 57 910 b 120 972 57 944 85 972 b 629 972 120 972 562 972 b 403 48 333 307 343 104 b 382 0 420 32 406 2 "},"8":{"ha":857,"x_min":0,"x_max":0,"o":"m 792 265 b 383 -17 792 121 615 -17 b 69 231 151 -17 69 119 b 255 491 69 388 199 465 b 69 749 154 547 69 620 b 462 989 69 1034 462 989 b 749 778 650 989 749 897 b 495 548 749 586 536 552 b 792 265 637 487 792 431 m 462 972 b 263 778 406 972 263 936 b 482 553 263 657 367 602 b 648 783 526 571 648 636 b 462 972 648 852 604 972 m 177 255 b 383 0 177 160 241 0 b 598 209 525 0 598 114 b 274 480 598 352 423 402 b 177 255 238 447 177 374 "},"9":{"ha":850,"x_min":0,"x_max":0,"o":"m 782 566 b 311 -18 782 -2 495 -18 b 99 108 172 -18 99 31 b 206 212 99 167 164 213 b 227 164 230 212 234 187 b 311 2 208 105 226 2 b 574 329 375 2 526 -3 b 397 273 522 291 459 273 b 65 626 214 273 65 425 b 441 990 65 828 190 990 l 441 990 b 441 990 441 990 441 990 b 782 566 624 990 782 880 m 577 352 b 589 566 584 412 589 483 b 441 970 589 826 517 970 b 259 626 308 970 259 816 b 431 291 259 436 277 291 b 577 352 480 291 534 313 "},"\u0000":{"ha":0,"x_min":0,"x_max":0,"o":""},"\n":{"ha":0,"x_min":0,"x_max":0,"o":""},"\r":{"ha":0,"x_min":0,"x_max":0,"o":""}," ":{"ha":483,"x_min":0,"x_max":0,"o":""},"!":{"ha":328,"x_min":0,"x_max":0,"o":"m 78 876 b 164 972 72 927 112 972 b 249 876 215 972 255 927 l 175 242 b 164 232 174 236 169 232 b 152 242 158 232 153 236 m 163 194 b 260 97 216 194 260 151 b 164 0 261 44 218 0 b 67 96 111 -1 67 42 b 163 194 66 149 109 193 "},"\"":{"ha":301,"x_min":0,"x_max":0,"o":"m 96 972 b 143 919 124 972 146 947 l 102 773 b 96 767 102 770 99 767 b 90 773 93 767 90 770 l 49 919 b 96 972 46 947 68 972 m 205 972 b 252 919 234 972 256 947 l 211 773 b 205 767 211 770 208 767 b 199 773 202 767 200 770 l 158 919 b 205 972 155 947 177 972 "},"“":{"ha":301,"x_min":0,"x_max":0,"o":"m 96 972 b 49 919 68 972 46 947 l 90 773 b 96 767 90 770 93 767 b 102 773 99 767 102 770 l 143 919 b 96 972 146 947 124 972 m 205 972 b 158 919 177 972 155 947 l 199 773 b 205 767 200 770 202 767 b 211 773 208 767 211 770 l 252 919 b 205 972 256 947 234 972 "},"”":{"ha":301,"x_min":0,"x_max":0,"o":"m 96 972 b 143 919 124 972 146 947 l 102 773 b 96 767 102 770 99 767 b 90 773 93 767 90 770 l 49 919 b 96 972 46 947 68 972 m 205 972 b 252 919 234 972 256 947 l 211 773 b 205 767 211 770 208 767 b 199 773 202 767 200 770 l 158 919 b 205 972 155 947 177 972 "},"#":{"ha":663,"x_min":0,"x_max":0,"o":"m 595 427 b 605 417 601 427 605 423 l 605 359 b 595 349 605 353 601 349 l 468 349 l 468 137 b 458 127 468 132 464 127 b 448 137 453 127 448 132 l 448 349 l 273 349 l 273 137 b 263 127 273 132 268 127 l 204 127 b 194 137 198 127 194 132 l 194 349 l 67 349 b 57 359 61 349 57 353 l 57 417 b 67 427 57 423 61 427 l 194 427 l 194 603 l 67 603 b 57 613 61 603 57 608 b 67 623 57 619 61 623 l 194 623 l 194 834 b 204 844 194 840 198 844 l 263 844 b 273 834 268 844 273 840 l 273 623 l 448 623 l 448 834 b 458 844 448 840 453 844 b 468 834 464 844 468 840 l 468 623 l 595 623 b 605 613 601 623 605 619 b 595 603 605 608 601 603 l 468 603 l 468 427 l 595 427 m 448 603 l 273 603 l 273 427 l 448 427 "},"$":{"ha":774,"x_min":0,"x_max":0,"o":"m 423 551 b 714 317 551 497 714 438 b 423 125 714 184 576 135 l 423 10 b 412 0 423 4 418 0 b 402 10 407 0 402 4 l 402 124 b 369 123 391 123 380 123 l 369 10 b 359 0 369 4 364 0 b 349 10 353 0 349 4 l 349 123 b 59 231 210 125 87 190 b 62 249 55 237 57 245 l 169 331 b 202 309 183 342 208 343 b 349 143 197 281 215 146 l 349 474 b 90 694 222 527 90 570 b 349 849 90 796 190 843 l 349 963 b 359 973 349 968 353 973 b 369 963 364 973 369 968 l 369 850 b 383 850 374 850 378 850 b 402 849 390 850 396 850 l 402 963 b 412 973 402 968 407 973 b 423 963 418 973 423 968 l 423 848 b 673 740 546 837 648 778 b 670 722 677 735 676 727 l 574 645 b 540 667 559 634 534 633 b 423 826 545 692 527 804 l 423 551 m 349 827 b 251 723 292 818 251 785 b 349 586 251 672 270 630 m 402 450 b 369 466 392 455 381 460 b 369 466 369 466 369 466 l 369 143 b 402 148 380 144 392 146 m 402 829 b 384 830 397 830 390 830 b 369 829 379 830 374 830 l 369 576 b 402 560 379 571 390 565 m 423 154 b 521 286 480 176 521 224 b 423 440 521 361 495 401 l 423 154 "},"%":{"ha":667,"x_min":0,"x_max":0,"o":"m 457 344 b 605 163 539 344 605 263 b 457 -18 605 63 539 -18 b 310 163 376 -18 310 63 b 457 344 310 263 376 344 m 457 -12 b 534 163 483 -12 534 38 b 457 338 534 283 483 338 b 379 163 431 338 379 289 b 457 -12 379 38 431 -12 m 209 628 b 61 809 127 628 61 710 b 209 991 61 909 127 991 b 356 809 290 991 356 909 b 209 628 356 710 290 628 m 209 984 b 131 809 183 984 131 936 b 209 635 131 685 183 635 b 286 809 235 635 286 685 b 209 984 286 930 235 984 m 578 972 b 599 938 596 972 607 954 l 108 12 b 87 0 104 5 96 0 b 67 34 70 0 59 19 l 558 960 b 578 972 562 967 570 972 l 578 972 "},"&":{"ha":1179,"x_min":0,"x_max":0,"o":"m 1132 54 b 1124 34 1133 46 1130 39 b 814 86 1063 -8 945 19 b 549 -21 730 29 634 -11 b 52 199 318 -48 75 10 b 310 507 35 350 258 479 b 215 723 255 582 220 657 b 483 988 201 894 379 980 b 766 828 663 1003 756 946 b 511 569 778 681 567 591 b 828 195 595 434 714 291 b 865 365 857 247 873 305 b 760 505 856 447 809 489 b 738 577 730 515 719 552 b 1015 567 809 671 952 666 b 1048 470 1032 541 1044 509 b 891 147 1062 356 992 239 b 1094 95 971 92 1044 68 b 1128 79 1108 103 1125 94 l 1132 54 m 518 971 b 400 839 426 964 393 921 b 500 587 405 773 443 682 b 664 832 539 605 676 679 b 518 971 658 901 611 979 m 547 -4 b 764 113 616 4 700 48 b 322 491 603 205 430 348 b 208 239 286 469 190 394 b 547 -4 225 96 353 -27 "},"'":{"ha":193,"x_min":0,"x_max":0,"o":"m 96 972 b 143 919 124 972 146 947 l 102 773 b 96 767 102 770 99 767 b 90 773 93 767 90 770 l 49 919 b 96 972 46 947 68 972 "},"‘":{"ha":193,"x_min":0,"x_max":0,"o":"m 96 972 b 49 919 68 972 46 947 l 90 773 b 96 767 90 770 93 767 b 102 773 99 767 102 770 l 143 919 b 96 972 146 947 124 972 "},"’":{"ha":193,"x_min":0,"x_max":0,"o":"m 96 972 b 143 919 124 972 146 947 l 102 773 b 96 767 102 770 99 767 b 90 773 93 767 90 770 l 49 919 b 96 972 46 947 68 972 "},"(":{"ha":479,"x_min":0,"x_max":0,"o":"m 429 18 b 435 9 433 16 435 13 b 426 0 435 4 431 0 b 62 486 270 8 62 213 b 426 972 62 759 270 964 b 435 963 431 972 435 968 b 429 954 435 959 433 955 b 256 486 375 938 256 744 b 429 18 256 228 375 33 "},")":{"ha":479,"x_min":0,"x_max":0,"o":"m 52 972 b 416 486 208 964 416 759 b 52 0 416 213 208 8 b 43 9 47 0 43 4 b 50 18 43 13 46 16 b 222 486 104 33 222 228 b 50 954 222 744 104 938 b 43 963 46 955 43 959 b 52 972 43 968 47 972 "},"*":{"ha":536,"x_min":0,"x_max":0,"o":"m 479 833 b 429 763 490 804 466 777 l 288 745 l 402 661 b 412 575 428 630 435 595 b 330 601 386 554 353 573 l 267 735 l 205 601 b 123 575 182 573 148 554 b 132 661 99 595 107 630 l 247 745 l 105 763 b 56 833 68 777 44 804 b 140 850 68 863 106 863 l 254 768 l 220 900 b 267 972 220 940 237 972 b 314 900 300 972 314 936 l 281 768 l 395 850 b 479 833 429 863 467 863 "},"+":{"ha":533,"x_min":0,"x_max":0,"o":"m 457 525 b 483 499 471 525 483 513 l 483 473 b 457 447 483 459 471 447 l 306 447 l 306 296 b 279 269 306 281 294 269 l 254 269 b 227 296 239 269 227 281 l 227 447 l 77 447 b 50 473 62 447 50 459 l 50 499 b 77 525 50 513 62 525 l 227 525 l 227 676 b 254 703 227 691 239 703 l 279 703 b 306 676 294 703 306 691 l 306 525 l 457 525 "},",":{"ha":292,"x_min":0,"x_max":0,"o":"m 188 184 b 233 55 236 161 256 103 b 149 -51 196 -20 168 -60 b 147 0 128 -41 110 -16 b 104 9 132 0 118 3 b 58 139 55 33 35 91 b 188 184 81 187 139 207 "},"-":{"ha":514,"x_min":0,"x_max":0,"o":"m 447 525 b 474 499 462 525 474 513 l 474 473 b 447 447 474 459 462 447 l 67 447 b 40 473 52 447 40 459 l 40 499 b 67 525 40 513 52 525 l 447 525 "},".":{"ha":292,"x_min":0,"x_max":0,"o":"m 214 28 b 77 28 176 -10 115 -10 b 77 165 39 66 39 127 b 214 165 115 203 176 203 b 214 28 252 127 252 66 "},"/":{"ha":432,"x_min":0,"x_max":0,"o":"m 360 972 b 384 940 377 972 389 956 l 96 18 b 72 0 93 7 83 0 b 48 32 55 0 43 16 l 336 955 b 360 972 339 965 349 972 l 360 972 "},":":{"ha":311,"x_min":0,"x_max":0,"o":"m 183 534 b 62 599 132 519 78 548 b 127 719 47 650 76 704 b 248 654 179 735 233 706 b 183 534 263 603 234 549 m 224 277 b 87 277 186 239 125 239 b 87 414 49 315 49 376 b 224 414 125 452 186 452 b 224 277 262 376 262 315 "},";":{"ha":313,"x_min":0,"x_max":0,"o":"m 197 433 b 243 304 246 410 266 352 b 158 198 206 228 178 188 b 157 249 138 208 120 233 b 113 258 142 248 127 251 b 68 388 65 281 45 339 b 197 433 91 436 149 456 m 224 558 b 87 558 186 521 125 521 b 87 695 49 596 49 658 b 224 695 125 733 186 733 b 224 558 262 658 262 596 "},"<":{"ha":451,"x_min":0,"x_max":0,"o":"m 396 672 b 386 654 396 665 392 658 l 115 486 l 386 318 b 396 300 392 314 396 307 l 396 272 b 364 253 396 255 378 245 l 62 440 b 51 460 56 444 51 452 l 51 484 b 51 486 51 485 51 485 b 51 488 51 487 51 487 l 51 513 b 62 532 51 521 56 528 l 364 719 b 396 700 378 727 396 717 l 396 672 "},"=":{"ha":440,"x_min":0,"x_max":0,"o":"m 365 609 b 392 582 380 609 392 597 l 392 557 b 365 530 392 542 380 530 l 74 530 b 47 557 59 530 47 542 l 47 582 b 74 609 47 597 59 609 l 365 609 m 365 442 b 392 415 380 442 392 430 l 392 390 b 365 363 392 375 380 363 l 74 363 b 47 390 59 363 47 375 l 47 415 b 74 442 47 430 59 442 l 365 442 "},">":{"ha":451,"x_min":0,"x_max":0,"o":"m 399 488 b 399 486 399 487 399 487 b 399 484 399 485 399 485 l 399 460 b 388 440 399 452 395 444 l 87 253 b 54 272 73 245 54 255 l 54 300 b 64 318 54 307 58 314 l 335 486 l 64 654 b 54 672 58 658 54 665 l 54 700 b 87 719 54 717 73 727 l 388 532 b 399 513 395 528 399 521 "},"?":{"ha":646,"x_min":0,"x_max":0,"o":"m 315 3 b 197 72 264 -11 211 20 b 267 190 184 124 215 177 b 385 121 319 204 372 172 b 315 3 398 69 367 16 m 289 990 b 586 728 446 990 586 929 b 304 234 586 440 333 253 b 299 232 303 232 301 232 b 290 246 291 232 286 240 b 393 728 316 294 393 457 b 289 973 393 951 339 973 b 286 973 288 973 287 973 b 234 740 154 969 215 764 b 214 692 249 721 237 693 b 64 692 204 691 71 691 b 48 712 53 692 45 702 b 289 990 59 764 83 990 "},"@":{"ha":1135,"x_min":0,"x_max":0,"o":"m 805 119 b 613 317 637 119 613 225 l 613 329 b 488 290 585 308 545 290 b 272 435 321 290 272 366 b 516 615 272 578 415 579 b 668 690 568 633 665 657 l 751 690 l 751 303 b 834 179 751 218 780 179 b 1028 486 978 179 1028 385 l 1030 486 b 1028 489 1029 486 1028 487 b 567 947 1026 742 820 947 b 112 412 288 947 67 699 b 489 32 142 218 295 64 b 800 88 603 13 711 36 b 801 89 800 89 800 89 b 812 45 825 89 833 57 b 567 -18 740 5 656 -18 b 63 469 294 -18 72 198 b 584 990 53 760 293 1000 b 1071 489 854 981 1070 760 b 1069 486 1071 487 1070 486 l 1071 486 b 805 119 1071 381 1017 119 m 536 318 b 613 343 570 318 595 329 l 613 636 b 518 601 587 625 555 613 b 410 450 458 581 410 541 b 536 318 410 371 468 318 "},"A":{"ha":774,"x_min":0,"x_max":0,"o":"m 31 0 b 11 55 2 0 -11 35 b 119 280 41 82 82 143 l 119 280 l 289 913 l 280 946 b 300 972 276 959 286 972 l 451 972 b 471 957 460 972 468 966 l 653 280 l 653 280 b 760 55 689 143 730 82 b 739 0 782 35 768 0 b 502 0 735 0 514 0 b 478 48 479 0 467 28 b 459 280 492 71 498 130 l 406 476 l 191 476 l 139 280 b 141 43 96 117 126 62 b 127 0 153 28 146 0 b 31 0 112 0 35 0 m 197 496 l 401 496 l 299 876 "},"B":{"ha":904,"x_min":0,"x_max":0,"o":"m 77 0 b 52 51 51 0 37 29 b 96 279 78 90 91 138 l 96 692 b 52 921 91 833 78 882 b 77 972 37 942 51 972 b 448 972 85 972 448 972 b 798 768 754 972 798 849 b 575 555 798 698 765 588 b 873 292 756 525 873 430 b 448 0 873 125 700 0 b 77 0 448 0 85 0 m 679 292 b 448 545 679 454 594 545 b 289 365 301 545 289 365 l 289 20 l 448 20 b 679 292 593 20 679 130 m 289 952 l 289 435 b 448 565 289 435 305 565 b 604 758 550 565 604 656 b 448 952 604 879 552 952 "},"C":{"ha":939,"x_min":0,"x_max":0,"o":"m 563 -18 b 36 486 217 -18 36 207 b 508 991 36 765 225 991 b 841 823 682 991 802 880 b 840 801 846 815 848 807 l 737 715 b 690 746 717 700 705 700 b 508 974 669 813 623 974 b 230 486 316 974 230 755 b 563 -2 230 217 334 -2 b 911 221 756 -2 870 151 l 928 211 b 563 -18 885 134 774 -18 "},"D":{"ha":939,"x_min":0,"x_max":0,"o":"m 77 0 b 52 51 51 0 37 29 b 96 280 78 90 91 138 l 96 692 b 52 921 91 834 78 882 b 77 972 37 943 51 972 b 447 972 85 972 447 972 l 447 972 b 904 486 699 972 904 765 b 447 0 904 207 699 0 b 77 0 447 0 85 0 m 289 952 l 289 20 l 447 20 b 710 486 592 20 710 217 b 447 952 710 755 592 952 "},"E":{"ha":824,"x_min":0,"x_max":0,"o":"m 52 921 b 77 972 37 943 51 972 b 745 972 85 972 745 972 b 763 954 755 972 763 964 l 763 952 b 763 952 763 952 763 952 b 729 731 763 951 743 763 b 677 725 720 709 690 706 b 424 952 651 762 598 946 l 289 952 l 289 386 b 606 571 343 489 549 571 b 637 545 632 571 637 558 b 637 488 637 538 637 496 b 586 463 637 462 607 448 b 289 365 498 521 341 463 l 289 20 l 465 20 b 708 246 631 32 683 210 b 760 241 721 266 751 263 b 794 20 774 208 794 20 l 794 18 b 776 0 794 8 786 0 b 77 0 776 0 85 0 b 52 51 51 0 37 29 b 96 280 78 90 91 138 l 96 692 b 52 921 91 834 78 882 "},"F":{"ha":768,"x_min":0,"x_max":0,"o":"m 52 921 b 77 972 37 943 51 972 b 736 972 85 972 736 972 b 754 954 746 972 754 964 b 720 731 754 954 734 763 b 668 725 711 709 681 706 b 415 952 643 762 589 946 l 289 952 l 289 387 b 605 571 344 489 549 571 b 636 545 631 571 636 558 b 636 488 636 538 636 496 b 585 463 636 462 607 448 b 289 366 497 520 341 464 l 289 280 b 333 51 294 138 307 90 b 308 0 348 29 334 0 b 77 0 300 0 85 0 b 52 51 51 0 37 29 b 96 280 78 90 91 138 l 96 692 b 52 921 91 834 78 882 "},"G":{"ha":967,"x_min":0,"x_max":0,"o":"m 848 377 b 928 296 892 377 928 341 l 928 13 b 915 0 928 6 922 0 l 833 0 b 759 34 804 0 777 13 b 563 -18 707 3 642 -18 b 36 486 217 -18 36 207 b 555 991 36 765 222 991 b 889 823 750 991 850 880 b 885 798 895 815 893 804 l 793 726 b 746 757 773 711 738 709 b 555 974 753 795 792 974 b 230 486 318 974 230 755 b 563 -2 230 217 334 -2 b 735 154 712 -2 735 119 l 735 155 b 688 328 730 301 708 304 b 709 377 673 347 685 375 b 848 377 719 377 848 377 "},"H":{"ha":1028,"x_min":0,"x_max":0,"o":"m 738 692 b 694 921 733 834 720 882 b 719 972 679 943 693 972 b 950 972 727 972 942 972 b 975 921 976 972 990 943 b 931 692 949 882 936 834 l 931 280 b 975 51 936 138 949 90 b 950 0 990 29 976 0 b 719 0 942 0 727 0 b 694 51 693 0 679 29 b 738 280 720 90 733 138 l 738 476 l 289 476 l 289 280 b 333 51 294 138 307 90 b 308 0 348 29 334 0 b 77 0 300 0 85 0 b 52 51 51 0 37 29 b 96 280 78 90 91 138 l 96 692 b 52 921 91 834 78 882 b 77 972 37 943 51 972 b 308 972 85 972 300 972 b 333 921 334 972 348 943 b 289 692 307 882 294 834 l 289 496 l 738 496 l 738 692 "},"I":{"ha":386,"x_min":0,"x_max":0,"o":"m 77 0 b 52 51 51 0 37 29 b 96 280 78 90 91 138 l 96 692 b 52 921 91 834 78 882 b 77 972 37 943 51 972 b 308 972 85 972 300 972 b 333 921 334 972 348 943 b 289 692 307 882 294 834 l 289 280 b 333 51 294 138 307 90 b 308 0 348 29 334 0 b 77 0 300 0 85 0 "},"J":{"ha":608,"x_min":0,"x_max":0,"o":"m 538 972 b 564 921 564 972 578 943 b 520 692 538 882 524 834 l 520 247 b 218 -18 520 46 395 -18 b 32 17 144 -18 82 -8 b 31 128 -12 40 -13 104 b 123 89 68 148 113 129 b 218 2 140 24 170 2 b 326 247 294 2 326 57 l 326 692 l 326 692 b 282 921 321 834 308 882 b 307 972 268 943 281 972 b 538 972 315 972 531 972 "},"K":{"ha":906,"x_min":0,"x_max":0,"o":"m 50 46 b 98 280 70 69 93 129 l 98 692 b 54 921 93 834 80 882 b 79 972 39 943 53 972 b 310 972 87 972 302 972 b 335 921 336 972 350 943 b 291 692 309 882 296 834 l 291 370 l 552 698 b 549 925 654 825 569 902 b 568 972 534 943 545 972 b 820 972 580 972 808 972 b 838 925 842 972 853 943 b 615 751 819 903 708 866 l 446 539 l 692 228 b 888 53 775 124 843 75 b 873 0 915 39 907 0 b 630 0 873 0 648 0 b 612 41 614 0 606 25 b 536 181 617 54 609 88 l 349 417 l 291 345 l 291 280 l 291 280 b 339 46 296 129 319 69 b 320 0 354 29 343 0 b 69 0 309 0 80 0 b 50 46 46 0 35 29 "},"L":{"ha":799,"x_min":0,"x_max":0,"o":"m 73 0 b 51 48 49 0 36 29 b 97 280 70 73 92 133 l 97 692 b 51 924 92 839 70 899 b 73 972 36 943 49 971 b 315 972 82 973 306 973 b 337 924 339 971 352 943 b 291 692 317 899 295 839 l 291 20 l 454 20 b 720 182 629 26 695 146 b 772 177 733 202 763 199 b 794 20 786 144 795 34 b 774 0 794 9 785 0 b 73 0 774 0 82 0 "},"M":{"ha":1132,"x_min":0,"x_max":0,"o":"m 49 44 b 99 280 69 66 94 124 l 99 692 b 49 928 94 848 69 906 b 64 972 34 943 43 972 l 244 972 b 274 952 257 972 269 964 l 552 246 l 832 955 b 858 972 836 965 847 972 l 1067 972 b 1083 928 1088 972 1097 943 b 1033 692 1062 906 1038 848 l 1033 280 b 1083 44 1038 124 1062 66 b 1067 0 1097 29 1088 0 b 805 0 1054 0 818 0 b 790 44 784 0 775 29 b 839 280 810 66 834 124 l 839 921 l 479 9 b 465 0 477 4 471 0 b 452 9 459 0 454 4 l 119 854 l 119 280 b 168 44 124 124 148 66 b 153 0 183 29 174 0 b 64 0 140 0 77 0 b 49 44 43 0 34 29 "},"N":{"ha":936,"x_min":0,"x_max":0,"o":"m 55 0 b 45 41 37 0 31 29 b 98 280 66 59 93 115 l 98 900 l 64 943 b 79 972 55 955 63 972 l 268 972 b 286 964 275 972 281 969 l 819 297 l 819 692 b 766 931 814 857 787 913 b 776 972 752 943 758 972 b 882 972 792 972 866 972 b 892 931 900 972 906 943 b 839 692 872 913 845 857 l 839 14 b 826 0 839 6 833 0 b 815 5 822 0 818 2 l 118 875 l 118 280 b 172 41 124 115 151 59 b 161 0 186 29 180 0 b 55 0 146 0 71 0 "},"O":{"ha":986,"x_min":0,"x_max":0,"o":"m 493 -18 b 36 486 241 -18 36 207 b 493 991 36 765 241 991 b 950 486 745 991 950 765 b 493 -18 950 207 745 -18 m 493 974 b 230 486 348 974 230 755 b 493 -2 230 217 348 -2 b 756 486 638 -2 756 217 b 493 974 756 755 638 974 "},"P":{"ha":813,"x_min":0,"x_max":0,"o":"m 449 972 b 800 768 756 972 800 849 b 449 545 800 685 753 545 b 291 370 327 545 294 400 l 291 280 b 338 47 296 130 318 70 b 319 0 353 29 342 0 b 69 0 308 0 80 0 b 50 47 46 0 35 29 b 97 280 70 70 92 130 l 97 692 l 97 692 b 50 925 92 842 70 902 b 69 972 35 943 46 972 b 449 972 80 972 449 972 m 449 565 b 606 758 555 565 606 656 b 449 952 606 879 553 952 l 291 952 l 291 438 b 449 565 294 458 344 565 "},"Q":{"ha":986,"x_min":0,"x_max":0,"o":"m 36 482 b 493 986 36 761 241 986 b 950 482 745 986 950 761 b 583 -13 950 238 792 34 b 637 -37 602 -18 620 -25 b 902 -64 726 -97 844 -136 b 915 -62 905 -60 911 -59 l 915 -62 b 918 -77 920 -66 921 -72 b 528 -197 855 -166 713 -323 b 287 -141 457 -148 360 -47 b 274 -143 284 -145 278 -146 b 271 -129 269 -140 268 -133 b 441 -19 307 -83 371 -40 b 36 482 213 9 36 223 m 756 482 b 493 970 756 751 638 970 b 230 482 348 970 230 751 b 493 -6 230 213 348 -6 b 756 482 638 -6 756 213 "},"R":{"ha":871,"x_min":0,"x_max":0,"o":"m 849 46 b 830 0 864 29 853 0 b 560 0 817 0 573 0 b 541 46 537 0 526 29 b 508 242 561 70 587 51 l 390 531 b 291 370 316 495 294 395 l 291 280 b 338 47 296 130 318 70 b 319 0 353 29 342 0 b 69 0 308 0 80 0 b 50 47 46 0 35 29 b 97 280 70 70 92 130 l 97 692 l 97 692 b 50 925 92 842 70 902 b 69 972 35 943 46 972 b 449 972 80 972 449 972 b 800 768 756 972 800 849 b 575 554 800 698 766 587 l 575 554 l 709 225 b 849 46 773 69 829 70 m 291 438 b 449 565 294 458 344 565 b 606 758 555 565 606 656 b 449 952 606 879 553 952 l 291 952 l 291 438 "},"S":{"ha":919,"x_min":0,"x_max":0,"o":"m 426 974 b 227 782 315 974 227 885 b 492 584 227 696 303 638 b 890 251 684 528 890 424 b 456 -18 890 90 703 -18 b 37 149 200 -18 75 92 b 41 174 31 157 33 168 l 154 263 b 200 231 174 278 192 279 b 455 -2 208 185 263 -2 b 696 217 602 -2 696 85 b 444 474 696 344 599 434 b 33 774 250 524 33 593 b 425 991 33 925 213 991 b 840 823 682 991 801 880 b 836 798 845 815 844 804 l 736 715 b 690 746 716 700 706 701 b 426 974 668 808 618 974 "},"T":{"ha":1047,"x_min":0,"x_max":0,"o":"m 1017 972 b 1033 955 1026 972 1033 965 b 999 680 1033 955 1013 713 b 947 675 990 658 960 655 b 694 952 922 712 869 946 l 619 952 l 619 280 b 663 51 624 139 644 77 b 638 0 679 30 664 0 b 407 0 631 -1 414 -1 b 382 51 381 0 367 30 b 426 280 401 77 421 139 l 426 280 l 426 952 l 352 952 b 99 675 177 946 124 712 b 47 680 86 655 56 658 b 13 952 33 713 12 939 b 33 972 13 963 22 972 l 1017 972 "},"U":{"ha":886,"x_min":0,"x_max":0,"o":"m 310 972 b 330 925 333 972 344 943 b 282 692 310 902 287 842 l 282 311 b 482 -2 282 86 337 -2 b 773 311 735 -2 773 91 l 773 692 b 720 931 768 857 741 913 b 730 970 706 943 712 966 b 836 970 746 973 821 973 b 847 931 854 966 860 943 b 793 692 826 913 799 857 l 793 311 b 482 -18 793 56 735 -18 b 89 311 230 -18 89 56 l 89 692 l 89 692 b 42 925 84 842 61 902 b 61 972 27 943 38 972 b 310 972 72 972 300 972 "},"V":{"ha":779,"x_min":0,"x_max":0,"o":"m 269 970 b 290 929 287 966 298 946 b 321 698 282 910 280 855 l 485 232 b 628 929 485 232 756 699 b 664 972 617 949 641 972 l 728 972 b 764 938 747 972 764 957 b 394 9 764 669 394 9 b 380 0 392 4 386 0 b 367 9 374 0 369 4 l 128 696 b 128 696 128 696 128 696 l 89 809 b 9 919 62 869 33 902 b 28 972 -14 936 -1 974 b 269 970 30 972 254 973 "},"W":{"ha":1286,"x_min":0,"x_max":0,"o":"m 485 232 b 623 746 485 232 653 545 b 602 809 614 772 602 809 b 522 919 574 869 546 902 b 541 972 498 936 511 972 b 782 973 566 972 747 973 b 803 929 813 973 811 946 b 834 698 795 910 793 855 l 980 279 b 1126 941 980 279 1171 721 b 1156 972 1122 956 1138 972 b 1267 972 1172 972 1257 972 b 1277 927 1291 972 1291 947 b 906 9 1165 764 906 9 b 893 0 904 4 899 0 b 880 9 887 0 882 4 b 641 697 880 9 657 649 b 394 9 660 452 394 9 b 380 0 392 4 386 0 b 367 9 374 0 369 4 l 128 696 b 128 696 128 696 128 696 l 89 809 b 9 919 62 869 33 902 b 28 972 -14 936 -1 974 b 269 970 30 972 254 973 b 290 929 287 966 298 946 b 321 698 282 910 280 855 "},"X":{"ha":851,"x_min":0,"x_max":0,"o":"m 19 45 b 332 486 153 123 332 486 l 205 710 l 205 709 b 20 927 125 850 55 906 b 30 972 -1 939 5 972 b 314 972 40 972 299 972 b 336 929 333 972 341 972 b 405 698 331 893 321 846 l 472 580 b 597 946 472 580 634 831 b 629 972 591 964 611 972 b 740 972 645 972 730 972 b 750 927 765 972 770 941 b 482 563 679 877 482 563 l 652 263 b 839 45 732 122 804 67 b 829 0 860 33 854 0 b 545 0 819 0 561 0 b 523 43 526 0 518 0 b 484 217 527 74 535 113 l 342 469 b 174 25 342 469 164 141 b 140 0 175 5 159 0 b 30 0 125 0 40 0 b 19 45 5 0 -2 33 "},"Y":{"ha":706,"x_min":0,"x_max":0,"o":"m 297 972 b 309 929 313 972 318 942 b 336 703 295 910 283 856 l 439 403 b 573 930 439 403 611 829 b 587 969 567 947 570 965 b 687 971 603 973 674 973 b 697 926 710 968 711 944 b 448 377 616 816 448 377 l 448 280 b 499 43 453 122 478 64 b 485 0 513 29 505 0 b 218 0 471 0 232 0 b 204 43 197 0 189 29 b 254 280 224 64 249 122 l 254 377 l 144 698 b 7 926 92 848 40 905 b 18 972 -12 939 -5 972 b 297 972 30 972 278 972 "},"Z":{"ha":853,"x_min":0,"x_max":0,"o":"m 38 0 b 25 24 26 0 18 14 l 619 952 l 384 952 b 131 675 210 946 156 712 b 79 680 118 655 88 658 b 45 952 65 713 44 939 b 65 972 45 963 54 972 l 797 972 b 810 948 809 972 816 958 l 216 20 l 486 20 b 738 297 660 26 713 261 b 791 292 752 317 782 314 b 825 20 805 259 826 34 b 805 0 825 9 816 0 l 38 0 "},"[":{"ha":397,"x_min":0,"x_max":0,"o":"m 129 778 l 129 194 l 268 194 b 334 128 304 194 334 164 l 334 66 b 268 0 334 30 304 0 l 129 0 b 76 52 100 0 76 23 l 77 920 b 129 972 77 948 100 972 l 129 972 l 129 972 b 129 972 129 972 129 972 l 268 972 b 334 906 304 972 334 943 l 334 844 b 268 778 334 808 304 778 "},"\\":{"ha":433,"x_min":0,"x_max":0,"o":"m 384 32 b 360 0 389 16 377 0 l 360 0 b 336 18 349 0 339 7 l 48 940 b 72 972 43 956 55 972 b 96 955 83 972 93 965 l 384 32 "},"]":{"ha":397,"x_min":0,"x_max":0,"o":"m 268 972 b 320 920 297 972 320 949 l 319 52 b 268 0 319 24 296 0 l 268 0 l 267 0 b 267 0 267 0 267 0 l 129 0 b 63 66 92 0 63 30 l 63 128 b 129 194 63 164 92 194 l 267 194 l 267 778 l 129 778 b 63 844 92 778 63 808 l 63 906 b 129 972 63 943 92 972 l 268 972 "},"^":{"ha":564,"x_min":0,"x_max":0,"o":"m 514 660 b 496 627 523 646 513 627 l 468 627 b 449 637 460 627 453 631 l 282 909 l 114 637 b 96 627 110 631 103 627 l 67 627 b 49 660 51 627 40 646 l 236 961 b 255 972 240 968 247 972 l 280 972 b 282 972 280 972 281 972 b 284 972 282 972 283 972 l 308 972 b 328 961 316 972 324 968 l 514 660 "},"_":{"ha":514,"x_min":0,"x_max":0,"o":"m 447 79 b 474 52 462 79 474 67 l 474 27 b 447 0 474 12 462 0 l 67 0 b 40 27 52 0 40 12 l 40 52 b 67 79 40 67 52 79 l 447 79 "},"a":{"ha":793,"x_min":0,"x_max":0,"o":"m 750 49 b 730 0 765 30 753 2 b 704 0 720 0 711 0 b 510 21 704 0 568 59 l 510 21 b 368 -18 479 -1 433 -18 b 33 185 135 -18 33 55 b 375 437 33 344 234 388 b 510 536 448 463 505 489 l 510 536 l 510 542 b 368 690 510 658 442 690 b 224 552 260 690 224 614 b 181 510 224 509 195 504 b 94 555 174 514 120 542 b 88 574 87 559 85 567 b 368 710 107 617 172 710 b 704 542 546 710 704 676 l 704 280 b 750 49 709 133 731 73 m 368 2 b 510 53 435 2 480 26 l 510 494 b 415 430 491 469 457 447 b 227 176 314 392 227 303 b 368 2 227 58 298 2 "},"b":{"ha":775,"x_min":0,"x_max":0,"o":"m 432 710 b 733 346 659 710 733 547 b 401 -18 733 145 584 -18 b 171 43 339 -18 219 43 b 87 16 145 43 116 38 b 69 25 80 11 69 16 b 69 670 69 25 69 651 b 23 867 65 816 43 843 b 44 916 8 886 20 914 b 69 916 54 916 63 916 b 252 972 119 916 157 930 b 263 964 258 974 263 969 l 263 630 b 432 710 310 677 368 710 m 401 2 b 539 346 477 2 539 156 b 383 658 539 536 482 658 b 263 614 339 658 297 642 l 263 346 b 401 2 263 156 325 2 "},"c":{"ha":732,"x_min":0,"x_max":0,"o":"m 705 151 b 412 -18 670 74 591 -18 b 40 346 167 -18 40 145 b 396 710 40 547 171 710 b 672 542 556 710 672 638 b 536 434 672 476 616 440 b 450 477 484 430 433 443 b 396 690 489 556 445 690 b 234 346 320 690 234 536 b 503 40 234 156 376 40 b 694 157 598 40 659 93 "},"d":{"ha":800,"x_min":0,"x_max":0,"o":"m 761 40 b 754 1 774 30 770 1 b 605 1 737 1 617 1 b 515 66 563 1 528 28 b 342 -18 468 17 408 -18 b 42 346 116 -18 42 145 b 373 710 42 547 190 710 b 511 677 422 710 469 698 b 465 867 506 817 484 843 b 486 916 450 886 462 914 b 511 916 495 916 504 916 b 694 972 567 916 599 930 b 705 964 699 974 705 969 l 705 280 b 761 40 710 108 740 55 m 391 34 b 512 79 436 34 478 50 b 511 94 511 84 511 89 l 511 346 b 373 690 511 536 449 690 b 235 346 297 690 235 536 b 391 34 235 156 292 34 "},"e":{"ha":733,"x_min":0,"x_max":0,"o":"m 705 151 b 412 -18 670 74 591 -18 b 40 346 167 -18 40 145 b 396 710 40 547 171 710 b 672 542 556 710 672 638 b 449 399 672 459 626 399 l 448 399 l 447 399 l 236 399 b 234 346 235 382 234 364 b 503 40 234 156 376 40 b 694 157 598 40 659 93 m 396 690 b 238 419 330 690 257 574 l 350 419 b 396 690 526 419 465 690 "},"f":{"ha":490,"x_min":0,"x_max":0,"o":"m 710 853 b 704 834 713 846 710 838 b 617 789 678 821 624 793 b 574 830 603 783 574 788 b 430 969 574 893 538 969 b 321 787 356 969 321 902 l 321 691 l 476 691 b 486 681 482 691 486 687 b 476 671 486 676 482 671 l 321 671 l 321 279 b 367 48 326 133 348 73 b 347 0 382 30 371 0 b 102 0 337 0 112 0 b 81 48 78 0 66 30 b 128 279 101 73 123 133 l 128 671 l 21 671 b 11 681 16 671 11 676 b 21 691 11 687 16 691 l 128 691 l 128 787 b 430 989 128 921 252 989 b 710 853 626 989 691 896 "},"g":{"ha":786,"x_min":0,"x_max":0,"o":"m 114 177 b 809 -200 114 -18 809 116 b 393 -491 809 -357 624 -491 b 43 -240 171 -491 43 -360 b 171 -61 43 -156 96 -95 b 49 57 100 -38 49 -4 b 135 238 49 147 97 209 b 49 424 81 288 49 353 b 382 709 49 576 196 700 b 583 912 439 873 538 906 b 599 901 590 913 597 908 b 618 805 605 872 616 812 b 566 775 620 789 607 763 b 406 709 514 791 443 782 b 756 424 600 707 756 581 b 402 140 756 267 598 140 b 145 229 301 140 210 174 b 114 177 128 215 114 199 m 402 693 b 255 424 321 693 255 573 b 402 155 255 276 321 155 b 549 424 484 155 549 276 b 402 693 549 573 484 693 m 393 -471 b 615 -288 548 -471 615 -347 b 243 -81 615 -139 407 -119 b 173 -268 200 -123 173 -186 b 393 -471 173 -355 230 -471 "},"h":{"ha":839,"x_min":0,"x_max":0,"o":"m 799 48 b 778 0 813 30 802 0 b 533 0 767 0 544 0 b 513 48 509 0 498 30 b 559 280 532 73 554 133 l 559 493 b 436 662 559 600 500 662 b 283 610 400 662 338 651 l 283 279 b 329 48 287 133 309 73 b 308 0 344 30 332 0 b 63 0 298 0 74 0 b 43 48 39 0 28 30 b 89 279 62 73 84 133 b 89 676 89 406 89 554 b 43 874 84 823 62 850 b 64 922 28 893 40 921 b 89 922 73 923 82 923 b 255 971 140 922 167 935 b 283 953 268 977 283 967 l 283 624 b 507 710 348 672 427 710 b 752 493 690 710 752 616 l 752 280 b 799 48 757 133 779 73 "},"i":{"ha":378,"x_min":0,"x_max":0,"o":"m 191 750 b 94 846 138 750 94 793 b 191 943 94 900 138 943 b 288 846 245 943 288 900 b 191 750 288 793 245 750 m 334 48 b 314 0 349 30 338 0 b 69 0 303 0 79 0 b 48 48 45 0 33 30 b 94 279 68 73 90 133 b 94 389 94 316 94 353 b 48 586 90 535 68 562 b 69 634 33 605 45 633 b 94 634 79 635 88 635 b 261 684 145 634 172 648 b 288 666 274 689 288 680 l 288 279 b 334 48 293 133 315 73 "},"j":{"ha":353,"x_min":0,"x_max":0,"o":"m 186 750 b 89 846 132 750 89 793 b 186 943 89 900 132 943 b 283 846 239 943 283 900 b 186 750 283 793 239 750 m 272 690 b 283 682 277 692 283 688 l 283 -169 b -20 -371 283 -302 159 -371 b -300 -234 -216 -371 -281 -278 b -294 -216 -303 -228 -300 -220 b -207 -171 -268 -202 -214 -174 b -164 -212 -192 -164 -164 -170 b -20 -351 -164 -274 -128 -351 b 89 -169 54 -351 89 -284 l 89 388 b 43 619 84 535 62 595 b 63 668 28 638 40 666 b 89 668 73 668 82 668 b 272 690 89 668 176 664 "},"k":{"ha":783,"x_min":0,"x_max":0,"o":"m 763 35 b 746 0 778 17 770 0 b 483 0 737 0 493 0 b 455 37 459 0 446 15 b 399 235 466 62 488 71 l 330 362 l 283 318 l 283 279 b 329 48 287 133 309 73 b 308 0 344 30 332 0 b 63 0 297 0 73 0 b 43 48 39 0 28 30 b 89 279 62 73 84 133 b 89 677 89 406 89 554 b 43 874 84 823 62 850 b 64 923 28 893 40 921 b 89 923 73 923 82 923 b 255 972 140 923 167 936 b 283 954 268 977 283 968 l 283 337 l 412 457 b 472 649 525 569 504 616 b 497 691 456 665 458 691 b 712 691 506 691 702 692 b 739 662 736 690 754 680 b 462 484 720 637 595 607 l 459 481 l 585 249 b 763 35 679 76 744 60 "},"l":{"ha":372,"x_min":0,"x_max":0,"o":"m 329 48 b 308 0 344 30 332 0 b 63 0 295 0 74 0 b 43 48 39 0 28 30 b 89 279 62 73 84 133 b 89 676 89 406 89 554 b 43 874 84 823 62 850 b 64 922 28 893 40 921 b 89 922 73 923 82 923 b 255 972 140 922 167 935 b 283 953 268 977 283 967 l 283 279 b 329 48 287 133 309 73 "},"m":{"ha":1304,"x_min":0,"x_max":0,"o":"m 1264 48 b 1243 0 1279 30 1267 0 b 999 0 1231 0 1009 0 b 978 48 975 0 963 30 b 1024 280 998 73 1019 133 l 1024 493 b 901 662 1024 600 966 662 b 736 601 863 662 795 649 b 758 493 751 570 758 533 l 758 280 b 804 48 763 133 785 73 b 783 0 819 30 807 0 b 539 0 770 0 549 0 b 518 48 515 0 503 30 b 564 280 538 73 560 133 l 564 493 b 441 662 564 600 506 662 b 288 610 406 662 344 651 l 288 279 b 334 48 293 133 315 73 b 314 0 349 30 338 0 b 69 0 300 0 80 0 b 48 48 45 0 33 30 b 94 279 68 73 90 133 b 94 389 94 316 94 353 b 48 586 90 535 68 562 b 69 634 33 605 45 633 b 94 634 79 635 88 635 b 261 684 145 634 172 648 b 288 666 274 689 288 680 l 288 624 b 512 710 353 672 433 710 b 731 611 630 710 698 671 b 972 710 799 665 886 710 b 1218 493 1155 710 1218 616 l 1218 493 l 1218 280 l 1218 280 b 1264 48 1223 133 1245 73 "},"n":{"ha":844,"x_min":0,"x_max":0,"o":"m 804 48 b 783 0 819 30 807 0 b 539 0 771 0 551 0 b 518 48 515 0 503 30 b 564 280 538 73 560 133 l 564 493 b 441 662 564 600 506 662 b 288 610 406 662 344 651 l 288 279 b 334 48 293 133 315 73 b 314 0 349 30 338 0 b 69 0 301 0 79 0 b 48 48 45 0 33 30 b 94 279 68 73 90 133 b 94 389 94 316 94 353 b 48 586 90 535 68 562 b 69 634 33 605 45 633 b 94 634 79 635 88 635 b 261 684 145 634 172 648 b 288 666 274 689 288 680 l 288 624 b 512 710 353 672 433 710 b 758 493 695 710 758 616 l 758 493 l 758 280 l 758 280 b 804 48 763 133 785 73 "},"o":{"ha":818,"x_min":0,"x_max":0,"o":"m 409 709 b 780 345 614 709 780 546 b 409 -19 780 144 614 -19 b 38 345 204 -19 38 144 b 409 709 38 546 204 709 m 409 1 b 563 345 494 1 563 155 b 409 689 563 535 494 689 b 254 345 324 689 254 535 b 409 1 254 155 324 1 "},"p":{"ha":792,"x_min":0,"x_max":0,"o":"m 420 709 b 752 345 603 709 752 546 b 420 -19 752 144 603 -19 b 283 14 371 -19 325 -7 l 283 -2 b 329 -233 287 -148 309 -209 b 308 -281 344 -252 332 -280 b 63 -281 298 -282 73 -282 b 43 -233 39 -280 28 -252 b 89 -2 62 -209 84 -148 b 89 389 89 105 89 374 b 43 586 84 535 62 562 b 64 634 28 605 40 633 b 89 634 73 635 82 635 b 255 684 140 634 167 648 b 283 666 268 689 283 680 l 283 637 b 420 709 314 678 358 709 m 420 1 b 558 345 496 1 558 155 b 420 689 558 535 496 689 b 283 604 381 689 325 674 l 283 331 b 420 1 286 147 346 1 "},"q":{"ha":772,"x_min":0,"x_max":0,"o":"m 748 -233 b 727 -281 763 -252 751 -281 b 483 -281 713 -281 493 -281 b 462 -233 459 -281 447 -252 b 508 -2 482 -209 504 -148 l 508 47 b 370 -19 475 9 429 -19 b 39 345 187 -19 39 144 b 370 709 39 546 187 709 b 602 648 433 709 529 648 b 691 680 629 648 660 654 b 702 675 695 684 702 681 l 702 345 b 702 -2 702 345 702 -1 b 748 -233 707 -148 729 -209 m 370 1 b 508 69 406 1 464 17 l 508 345 b 370 689 508 535 447 689 b 233 345 294 689 233 535 b 370 1 233 155 294 1 "},"r":{"ha":750,"x_min":0,"x_max":0,"o":"m 737 572 b 731 553 740 565 737 557 b 644 508 705 540 651 512 b 601 550 629 502 601 507 b 457 688 601 612 565 688 b 288 587 402 688 325 652 l 288 279 b 334 48 293 133 315 73 b 314 0 349 30 338 0 b 69 0 300 0 80 0 b 48 48 45 0 33 30 b 94 279 68 73 90 133 b 94 389 94 316 94 353 b 48 586 90 535 68 562 b 69 634 33 605 45 633 b 94 634 79 635 88 635 b 261 684 145 634 172 648 b 288 666 274 689 288 680 l 288 636 b 457 708 334 684 401 708 b 737 572 653 708 718 615 "},"s":{"ha":717,"x_min":0,"x_max":0,"o":"m 380 415 b 684 175 510 359 684 300 b 324 -19 684 23 502 -19 b 29 89 184 -19 57 48 b 32 107 25 95 26 103 l 138 190 b 172 167 153 201 178 201 b 324 1 167 139 185 1 b 490 144 416 1 490 60 b 338 324 490 236 452 275 b 59 552 206 381 59 422 b 353 708 59 661 175 708 b 642 599 493 708 614 640 b 639 581 646 593 645 585 l 543 503 b 510 525 529 492 504 491 b 353 688 515 553 492 688 b 220 582 280 688 220 655 b 380 415 220 519 249 471 "},"t":{"ha":493,"x_min":0,"x_max":0,"o":"m 481 7 b 473 -13 486 -1 482 -11 b 393 -18 450 -17 423 -18 b 99 256 216 -18 99 53 l 99 256 b 97 408 99 256 98 325 l 97 408 b 96 562 97 409 96 514 b 25 670 91 628 75 670 l 25 670 b 15 680 20 670 15 675 b 25 690 15 686 20 690 l 94 690 b 269 845 215 690 266 725 b 280 855 270 851 274 855 b 291 844 286 855 291 850 l 291 690 l 440 690 b 450 680 446 690 450 686 b 440 670 450 675 446 670 l 291 670 l 292 256 b 393 2 292 69 317 4 b 451 23 419 1 438 8 b 471 21 457 29 467 28 l 481 7 "},"u":{"ha":844,"x_min":0,"x_max":0,"o":"m 800 98 b 779 50 815 79 803 52 b 754 50 770 49 761 49 b 588 1 703 50 676 37 b 561 19 575 -5 561 5 l 561 73 b 332 -19 501 23 421 -19 b 86 198 149 -19 86 75 b 86 388 86 256 86 324 b 40 586 81 534 59 561 b 61 634 25 604 37 632 b 86 634 71 635 80 634 b 253 683 137 634 164 647 b 280 665 266 689 280 679 l 280 198 b 403 49 280 91 338 49 b 561 93 439 49 504 55 b 561 388 561 93 561 340 b 514 586 556 534 534 561 b 536 634 499 604 512 632 b 561 634 545 635 554 634 b 727 683 612 634 639 647 b 754 665 740 689 754 679 l 754 296 b 800 98 759 149 781 122 "},"v":{"ha":636,"x_min":0,"x_max":0,"o":"m 600 690 b 624 644 624 690 639 663 b 486 436 605 617 579 679 l 332 9 b 319 0 330 3 325 0 b 305 9 313 0 307 3 l 154 428 l 154 428 b 14 643 95 593 33 618 b 34 690 -1 661 10 690 b 279 690 47 690 269 690 b 300 643 306 690 315 661 b 297 571 289 629 287 609 l 405 269 l 466 437 b 510 644 525 600 531 619 b 532 690 495 662 508 690 l 600 690 "},"w":{"ha":960,"x_min":0,"x_max":0,"o":"m 924 690 b 949 644 948 690 963 663 b 810 436 929 617 903 679 l 656 9 b 643 0 654 3 649 0 b 629 9 637 0 631 3 l 481 422 l 332 9 b 319 0 330 3 325 0 b 305 9 313 0 307 3 l 154 428 l 154 428 b 14 643 95 593 33 618 b 34 690 -1 661 10 690 l 278 690 b 301 644 302 690 316 662 b 297 571 289 630 286 610 l 405 269 l 470 449 b 338 643 413 596 356 619 b 358 690 323 661 334 690 l 602 690 b 625 644 627 690 640 662 b 621 571 613 630 610 610 l 730 269 l 790 437 b 834 644 849 600 855 619 b 856 690 819 662 832 690 l 924 690 "},"x":{"ha":726,"x_min":0,"x_max":0,"o":"m 709 47 b 688 -1 724 29 712 -1 b 411 -1 678 -1 420 -1 b 390 47 387 -1 375 29 b 335 232 409 71 398 121 l 280 327 l 232 243 l 232 243 b 193 47 162 124 174 72 b 173 -1 208 29 196 -1 b 46 -1 163 -1 56 -1 b 25 47 22 -1 10 29 b 209 240 44 71 122 98 l 270 345 l 222 427 b 25 642 129 589 44 618 b 45 690 10 661 22 690 b 322 690 56 690 312 690 b 342 642 346 690 357 661 b 398 458 324 618 335 569 l 410 438 l 429 470 b 454 642 483 572 472 619 b 474 690 439 661 451 690 b 601 690 484 690 591 690 b 622 642 625 690 637 661 b 424 427 602 618 517 589 l 420 420 l 511 262 b 709 47 604 100 689 72 "},"y":{"ha":636,"x_min":0,"x_max":0,"o":"m 602 690 b 623 643 626 690 638 661 b 485 436 603 618 577 675 l 328 0 b -17 -348 328 0 235 -314 b -60 -308 -40 -351 -61 -332 l -55 -216 b -19 -179 -55 -196 -39 -177 b 308 0 244 -211 308 0 l 153 428 l 153 428 b 13 643 94 593 32 618 b 33 690 -2 661 10 690 b 278 690 52 690 255 690 b 299 643 302 690 314 661 b 296 571 288 629 286 609 l 405 269 l 465 436 b 511 643 523 597 530 618 b 531 690 496 661 507 690 b 602 690 541 690 589 690 "},"z":{"ha":638,"x_min":0,"x_max":0,"o":"m 574 173 b 609 19 588 140 610 33 l 609 17 b 590 -1 609 7 601 -1 l 39 -1 b 28 18 29 -1 23 10 l 404 670 l 378 670 b 126 511 204 665 151 548 b 73 517 112 492 82 495 b 39 670 59 550 38 657 l 39 672 b 57 690 39 682 47 690 l 581 691 b 595 667 594 691 602 677 l 222 19 l 269 19 b 522 178 444 25 497 141 b 574 173 535 198 565 195 "},"{":{"ha":411,"x_min":0,"x_max":0,"o":"m 197 486 b 342 333 335 437 342 368 b 260 78 342 257 260 129 b 325 -2 260 31 278 12 b 332 -10 329 -3 332 -6 b 323 -19 332 -16 328 -20 b 69 114 185 -12 69 -10 b 148 371 69 202 148 304 b 69 477 148 403 142 459 b 70 486 69 482 70 484 b 69 494 70 488 69 489 b 148 601 142 513 148 569 b 69 858 148 668 69 770 b 323 991 69 981 185 984 b 332 982 328 991 332 987 b 325 973 332 978 329 975 b 260 894 278 960 260 941 b 342 639 260 843 342 715 b 197 486 342 604 335 535 "},"|":{"ha":206,"x_min":0,"x_max":0,"o":"m 103 972 b 129 946 117 972 129 960 l 129 26 b 103 0 129 12 117 0 b 76 26 88 0 76 12 l 76 946 b 103 972 76 960 88 972 l 103 972 "},"}":{"ha":411,"x_min":0,"x_max":0,"o":"m 263 601 b 342 494 263 569 269 513 b 341 486 341 489 341 488 b 342 477 341 484 341 482 b 263 371 269 459 263 403 b 342 114 263 304 342 202 b 88 -19 342 -10 226 -12 b 79 -10 83 -20 79 -16 b 86 -2 79 -6 82 -3 b 151 78 133 12 151 31 b 69 333 151 129 69 257 b 214 486 69 368 76 437 b 69 639 76 535 69 604 b 151 894 69 715 151 843 b 86 973 151 941 133 960 b 79 982 82 975 79 978 b 88 991 79 987 83 991 b 342 858 226 984 342 981 b 263 601 342 770 263 668 "},"~":{"ha":525,"x_min":0,"x_max":0,"o":"m 452 525 b 479 525 452 546 479 544 b 394 421 479 507 472 421 b 73 447 316 421 73 543 b 46 447 73 424 46 428 b 137 565 46 513 82 565 b 452 525 193 565 452 451 "}," ":{"ha":483,"x_min":0,"x_max":0,"o":""},"©":{"ha":664,"x_min":0,"x_max":0,"o":"m 332 972 b 605 699 483 972 605 850 b 332 426 605 548 483 426 b 58 699 181 426 58 548 b 332 972 58 850 181 972 m 332 449 b 581 699 470 449 581 561 b 332 948 581 837 470 948 b 82 699 194 948 82 837 b 332 449 82 561 194 449 m 355 536 b 471 610 420 536 457 587 l 477 607 b 355 531 463 581 425 531 b 179 699 240 531 179 606 b 353 867 179 792 241 867 b 464 811 417 867 451 830 b 463 803 466 809 465 805 l 432 779 b 416 789 425 774 413 773 b 372 860 418 802 415 854 b 356 862 367 861 362 861 b 356 862 356 862 356 862 b 355 862 355 862 355 862 b 354 862 354 862 354 862 b 353 862 354 862 353 862 b 352 862 353 862 353 862 b 244 699 272 862 244 789 b 355 536 244 609 279 536 "},"­":{"ha":0,"x_min":0,"x_max":0,"o":""},"®":{"ha":531,"x_min":0,"x_max":0,"o":"m 265 972 b 473 764 380 972 473 879 b 265 556 473 649 380 556 b 57 764 150 556 57 649 b 265 972 57 879 150 972 m 265 574 b 455 764 370 574 455 659 b 265 954 455 869 370 954 b 75 764 160 954 75 869 b 265 574 75 659 160 574 m 322 707 b 353 667 336 672 349 672 b 349 657 356 663 354 658 b 343 657 346 657 344 657 l 300 657 b 289 657 298 657 292 657 b 285 667 284 658 282 663 b 278 710 290 672 295 668 l 251 777 l 230 777 l 230 719 b 241 667 231 686 236 673 b 237 657 244 663 242 658 b 230 657 234 657 232 657 l 188 657 b 182 657 186 657 184 657 b 177 667 177 658 174 663 b 188 719 182 673 187 686 l 188 809 b 177 860 187 842 182 855 b 182 871 174 864 177 870 b 188 871 184 871 186 871 l 265 871 b 342 826 333 871 342 844 b 293 779 342 810 335 786 l 322 707 m 265 781 b 300 824 288 781 300 801 b 265 866 300 850 288 866 l 230 866 l 230 781 l 265 781 "},"À":{"ha":772,"x_min":0,"x_max":0,"o":"m 760 55 b 739 0 782 35 768 0 b 502 0 735 0 514 0 b 478 48 479 0 467 28 b 459 280 492 71 498 130 l 406 476 l 191 476 l 139 280 b 141 43 96 117 126 62 b 127 0 153 28 146 0 b 31 0 112 0 35 0 b 11 55 2 0 -11 35 b 119 280 41 82 82 143 l 119 280 l 289 913 l 280 946 b 300 972 276 959 286 972 l 451 972 b 471 957 460 972 468 966 l 653 280 l 653 280 b 760 55 689 143 730 82 m 401 496 l 299 876 l 197 496 m 267 1155 b 276 1177 260 1163 265 1177 l 353 1177 b 366 1167 359 1177 364 1172 l 393 1039 b 386 1030 394 1034 391 1030 b 381 1032 384 1030 382 1031 "},"Á":{"ha":772,"x_min":0,"x_max":0,"o":"m 760 55 b 739 0 782 35 768 0 b 502 0 735 0 514 0 b 478 48 479 0 467 28 b 459 280 492 71 498 130 l 406 476 l 191 476 l 139 280 b 141 43 96 117 126 62 b 127 0 153 28 146 0 b 31 0 112 0 35 0 b 11 55 2 0 -11 35 b 119 280 41 82 82 143 l 119 280 l 289 913 l 280 946 b 300 972 276 959 286 972 l 451 972 b 471 957 460 972 468 966 l 653 280 l 653 280 b 760 55 689 143 730 82 m 401 496 l 299 876 l 197 496 m 332 1030 b 325 1039 328 1030 324 1034 l 353 1167 b 365 1177 354 1172 359 1177 l 442 1177 b 452 1155 453 1177 459 1163 l 338 1032 b 332 1030 336 1031 334 1030 "},"Â":{"ha":772,"x_min":0,"x_max":0,"o":"m 760 55 b 739 0 782 35 768 0 b 502 0 735 0 514 0 b 478 48 479 0 467 28 b 459 280 492 71 498 130 l 406 476 l 191 476 l 139 280 b 141 43 96 117 126 62 b 127 0 153 28 146 0 b 31 0 112 0 35 0 b 11 55 2 0 -11 35 b 119 280 41 82 82 143 l 119 280 l 289 913 l 280 946 b 300 972 276 959 286 972 l 451 972 b 471 957 460 972 468 966 l 653 280 l 653 280 b 760 55 689 143 730 82 m 401 496 l 299 876 l 197 496 m 310 1030 b 302 1039 305 1030 301 1034 l 330 1167 b 342 1177 331 1172 337 1177 l 429 1177 b 441 1167 435 1177 440 1172 l 469 1039 b 462 1030 470 1034 466 1030 b 456 1032 459 1030 458 1031 l 386 1109 l 315 1032 b 310 1030 314 1031 312 1030 "},"Ã":{"ha":772,"x_min":0,"x_max":0,"o":"m 760 55 b 739 0 782 35 768 0 b 502 0 735 0 514 0 b 478 48 479 0 467 28 b 459 280 492 71 498 130 l 406 476 l 191 476 l 139 280 b 141 43 96 117 126 62 b 127 0 153 28 146 0 b 31 0 112 0 35 0 b 11 55 2 0 -11 35 b 119 280 41 82 82 143 l 119 280 l 289 913 l 280 946 b 300 972 276 959 286 972 l 451 972 b 471 957 460 972 468 966 l 653 280 l 653 280 b 760 55 689 143 730 82 m 401 496 l 299 876 l 197 496 m 272 1071 b 246 1071 272 1048 246 1052 b 318 1161 246 1137 272 1161 b 499 1137 373 1161 499 1062 b 525 1137 499 1158 525 1155 b 459 1045 525 1118 526 1045 b 272 1071 381 1045 272 1147 "},"Ä":{"ha":772,"x_min":0,"x_max":0,"o":"m 760 55 b 739 0 782 35 768 0 b 502 0 735 0 514 0 b 478 48 479 0 467 28 b 459 280 492 71 498 130 l 406 476 l 191 476 l 139 280 b 141 43 96 117 126 62 b 127 0 153 28 146 0 b 31 0 112 0 35 0 b 11 55 2 0 -11 35 b 119 280 41 82 82 143 l 119 280 l 289 913 l 280 946 b 300 972 276 959 286 972 l 451 972 b 471 957 460 972 468 966 l 653 280 l 653 280 b 760 55 689 143 730 82 m 401 496 l 299 876 l 197 496 m 275 1032 b 203 1103 236 1032 204 1063 b 274 1174 203 1142 235 1174 b 345 1104 313 1175 345 1143 b 275 1032 346 1065 314 1032 m 458 1032 b 386 1103 418 1032 386 1063 b 457 1174 386 1142 417 1174 b 528 1104 496 1175 528 1143 b 458 1032 528 1065 497 1032 "},"Å":{"ha":772,"x_min":0,"x_max":0,"o":"m 760 55 b 739 0 782 35 768 0 b 502 0 735 0 514 0 b 478 48 479 0 467 28 b 459 280 492 71 498 130 l 406 476 l 191 476 l 139 280 b 141 43 96 117 126 62 b 127 0 153 28 146 0 b 31 0 112 0 35 0 b 11 55 2 0 -11 35 b 119 280 41 82 82 143 l 119 280 l 289 913 l 280 946 b 300 972 276 959 286 972 l 451 972 b 471 957 460 972 468 966 l 653 280 l 653 280 b 760 55 689 143 730 82 m 401 496 l 299 876 l 197 496 m 370 1015 b 282 1103 322 1015 282 1054 b 369 1191 282 1151 321 1191 b 457 1104 418 1191 457 1152 b 370 1015 458 1055 419 1016 m 369 1170 b 303 1103 332 1170 303 1140 b 370 1036 303 1066 333 1036 b 437 1104 407 1037 437 1067 b 369 1170 436 1141 406 1170 "},"Æ":{"ha":1047,"x_min":0,"x_max":0,"o":"m 981 241 b 1016 20 995 208 1016 20 l 1016 18 b 997 0 1016 8 1007 0 b 298 0 997 0 306 0 b 273 51 272 0 259 29 b 317 280 299 90 312 138 l 317 476 l 191 476 l 139 280 b 141 43 96 117 126 62 b 127 0 153 28 146 0 b 31 0 112 0 35 0 b 11 55 2 0 -11 35 b 119 280 41 82 82 143 l 119 280 l 285 900 b 273 921 281 907 277 914 b 298 972 259 943 272 972 b 966 972 306 972 966 972 b 985 954 976 972 985 964 l 985 952 b 985 952 985 952 985 952 b 950 731 985 951 964 763 b 898 725 941 709 911 706 b 645 952 873 762 820 946 l 511 952 l 511 527 l 578 527 b 807 571 720 531 768 545 b 858 545 829 585 858 571 b 858 488 858 538 858 496 b 807 463 858 462 829 448 b 578 507 768 489 720 502 l 511 507 l 511 20 l 686 20 b 929 246 853 32 904 210 b 981 241 942 266 972 263 m 317 496 l 317 692 b 297 869 314 781 308 833 l 197 496 "},"Ç":{"ha":939,"x_min":0,"x_max":0,"o":"m 928 211 b 597 -17 888 138 786 -2 b 611 -65 606 -30 611 -46 b 516 -157 611 -119 560 -145 b 626 -262 567 -160 626 -177 b 492 -382 626 -359 556 -382 b 372 -268 408 -382 371 -331 b 379 -262 372 -264 375 -262 b 439 -262 381 -261 435 -261 b 448 -281 449 -262 451 -272 b 492 -376 433 -323 445 -376 b 547 -276 513 -376 547 -367 b 461 -167 547 -175 499 -167 b 461 -167 461 -167 461 -167 l 459 -167 b 455 -162 457 -167 455 -165 b 459 -158 455 -160 457 -158 l 462 -158 b 466 -158 463 -158 464 -158 b 533 -65 492 -156 533 -135 b 528 -18 533 -45 531 -30 b 36 486 205 -3 36 217 b 508 991 36 765 225 991 b 841 823 682 991 802 880 b 840 801 846 815 848 807 l 737 715 b 690 746 717 700 705 700 b 508 974 669 813 623 974 b 230 486 316 974 230 755 b 563 -2 230 217 334 -2 b 911 221 756 -2 870 151 l 928 211 "},"È":{"ha":825,"x_min":0,"x_max":0,"o":"m 324 1155 b 334 1177 317 1163 323 1177 l 411 1177 b 423 1167 417 1177 422 1172 l 451 1039 b 444 1030 452 1034 448 1030 b 438 1032 442 1030 440 1031 m 760 241 b 794 20 774 208 794 20 l 794 18 b 776 0 794 8 786 0 b 77 0 776 0 85 0 b 52 51 51 0 37 29 b 96 280 78 90 91 138 l 96 692 b 52 921 91 834 78 882 b 77 972 37 943 51 972 b 745 972 85 972 745 972 b 763 954 755 972 763 964 l 763 952 b 763 952 763 952 763 952 b 729 731 763 951 743 763 b 677 725 720 709 690 706 b 424 952 651 762 598 946 l 289 952 l 289 386 b 606 571 343 489 549 571 b 637 545 632 571 637 558 b 637 488 637 538 637 496 b 586 463 637 462 607 448 b 289 365 498 521 341 463 l 289 20 l 465 20 b 708 246 631 32 683 210 b 760 241 721 266 751 263 "},"É":{"ha":825,"x_min":0,"x_max":0,"o":"m 362 1030 b 355 1039 358 1030 354 1034 l 383 1167 b 395 1177 384 1172 389 1177 l 473 1177 b 482 1155 483 1177 489 1163 l 368 1032 b 362 1030 366 1031 364 1030 m 760 241 b 794 20 774 208 794 20 l 794 18 b 776 0 794 8 786 0 b 77 0 776 0 85 0 b 52 51 51 0 37 29 b 96 280 78 90 91 138 l 96 692 b 52 921 91 834 78 882 b 77 972 37 943 51 972 b 745 972 85 972 745 972 b 763 954 755 972 763 964 l 763 952 b 763 952 763 952 763 952 b 729 731 763 951 743 763 b 677 725 720 709 690 706 b 424 952 651 762 598 946 l 289 952 l 289 386 b 606 571 343 489 549 571 b 637 545 632 571 637 558 b 637 488 637 538 637 496 b 586 463 637 462 607 448 b 289 365 498 521 341 463 l 289 20 l 465 20 b 708 246 631 32 683 210 b 760 241 721 266 751 263 "},"Ê":{"ha":825,"x_min":0,"x_max":0,"o":"m 291 1030 b 283 1039 286 1030 282 1034 l 311 1167 b 323 1177 312 1172 317 1177 l 410 1177 b 422 1167 416 1177 421 1172 l 450 1039 b 442 1030 451 1034 447 1030 b 437 1032 440 1030 438 1031 l 366 1109 l 296 1032 b 291 1030 295 1031 293 1030 m 760 241 b 794 20 774 208 794 20 l 794 18 b 776 0 794 8 786 0 b 77 0 776 0 85 0 b 52 51 51 0 37 29 b 96 280 78 90 91 138 l 96 692 b 52 921 91 834 78 882 b 77 972 37 943 51 972 b 745 972 85 972 745 972 b 763 954 755 972 763 964 l 763 952 b 763 952 763 952 763 952 b 729 731 763 951 743 763 b 677 725 720 709 690 706 b 424 952 651 762 598 946 l 289 952 l 289 386 b 606 571 343 489 549 571 b 637 545 632 571 637 558 b 637 488 637 538 637 496 b 586 463 637 462 607 448 b 289 365 498 521 341 463 l 289 20 l 465 20 b 708 246 631 32 683 210 b 760 241 721 266 751 263 "},"Ë":{"ha":825,"x_min":0,"x_max":0,"o":"m 350 1032 b 278 1103 310 1032 278 1063 b 349 1174 278 1142 309 1174 b 420 1104 388 1175 420 1143 b 350 1032 420 1065 389 1032 m 601 1089 b 518 1033 594 1051 557 1026 b 462 1116 480 1040 455 1077 b 545 1172 469 1155 506 1180 b 601 1089 584 1165 609 1128 m 760 241 b 794 20 774 208 794 20 l 794 18 b 776 0 794 8 786 0 b 77 0 776 0 85 0 b 52 51 51 0 37 29 b 96 280 78 90 91 138 l 96 692 b 52 921 91 834 78 882 b 77 972 37 943 51 972 b 745 972 85 972 745 972 b 763 954 755 972 763 964 l 763 952 b 763 952 763 952 763 952 b 729 731 763 951 743 763 b 677 725 720 709 690 706 b 424 952 651 762 598 946 l 289 952 l 289 386 b 606 571 343 489 549 571 b 637 545 632 571 637 558 b 637 488 637 538 637 496 b 586 463 637 462 607 448 b 289 365 498 521 341 463 l 289 20 l 465 20 b 708 246 631 32 683 210 b 760 241 721 266 751 263 "},"Ì":{"ha":386,"x_min":0,"x_max":0,"o":"m 333 51 b 308 0 348 29 334 0 b 77 0 300 0 85 0 b 52 51 51 0 37 29 b 96 280 78 90 91 138 l 96 692 b 52 921 91 834 78 882 b 77 972 37 943 51 972 b 308 972 85 972 300 972 b 333 921 334 972 348 943 b 289 692 307 882 294 834 l 289 280 l 289 280 b 333 51 294 138 307 90 m 115 1155 b 124 1177 107 1163 113 1177 l 201 1177 b 213 1167 207 1177 212 1172 l 241 1039 b 234 1030 242 1034 239 1030 b 229 1032 232 1030 230 1031 "},"Í":{"ha":386,"x_min":0,"x_max":0,"o":"m 333 51 b 308 0 348 29 334 0 b 77 0 300 0 85 0 b 52 51 51 0 37 29 b 96 280 78 90 91 138 l 96 692 b 52 921 91 834 78 882 b 77 972 37 943 51 972 b 308 972 85 972 300 972 b 333 921 334 972 348 943 b 289 692 307 882 294 834 l 289 280 l 289 280 b 333 51 294 138 307 90 m 135 1030 b 128 1039 130 1030 127 1034 l 155 1167 b 168 1177 157 1172 162 1177 l 245 1177 b 254 1155 256 1177 262 1163 l 140 1032 b 135 1030 139 1031 137 1030 "},"Î":{"ha":386,"x_min":0,"x_max":0,"o":"m 333 51 b 308 0 348 29 334 0 b 77 0 300 0 85 0 b 52 51 51 0 37 29 b 96 280 78 90 91 138 l 96 692 b 52 921 91 834 78 882 b 77 972 37 943 51 972 b 308 972 85 972 300 972 b 333 921 334 972 348 943 b 289 692 307 882 294 834 l 289 280 l 289 280 b 333 51 294 138 307 90 m 117 1030 b 109 1039 112 1030 108 1034 l 137 1167 b 149 1177 138 1172 143 1177 l 236 1177 b 248 1167 242 1177 247 1172 l 276 1039 b 268 1030 277 1034 273 1030 b 263 1032 266 1030 264 1031 l 193 1109 l 122 1032 b 117 1030 121 1031 119 1030 "},"Ï":{"ha":386,"x_min":0,"x_max":0,"o":"m 290 280 b 334 51 294 138 308 90 b 308 0 348 29 334 0 b 77 0 301 0 85 0 b 52 51 51 0 38 29 b 96 280 78 90 91 138 l 96 692 b 52 921 91 834 78 882 b 77 972 38 943 51 972 b 308 972 85 972 301 972 b 334 921 334 972 348 943 b 290 692 308 882 294 834 l 290 280 l 290 280 m 98 1032 b 26 1103 59 1032 27 1063 b 97 1174 26 1142 58 1174 b 168 1104 136 1175 168 1143 b 98 1032 169 1065 137 1032 m 280 1032 b 209 1103 241 1032 209 1063 b 279 1174 209 1142 240 1174 b 351 1104 319 1175 351 1143 b 280 1032 351 1065 320 1032 "},"Ð":{"ha":961,"x_min":0,"x_max":0,"o":"m 469 972 b 926 486 722 972 926 765 b 469 0 926 207 722 0 l 469 0 b 99 0 469 0 107 0 b 74 51 73 0 60 29 b 118 280 100 90 114 138 l 118 447 l 60 447 b 33 473 45 447 33 459 l 33 499 b 60 525 33 513 45 525 l 118 525 l 118 692 b 74 921 114 834 100 882 b 99 972 60 943 73 972 b 469 972 107 972 469 972 l 469 972 m 469 20 b 732 486 615 20 732 217 b 469 952 732 755 615 952 l 312 952 l 312 525 l 440 525 b 467 499 455 525 467 513 l 467 473 b 440 447 467 459 455 447 l 312 447 l 312 20 l 469 20 "},"Ñ":{"ha":938,"x_min":0,"x_max":0,"o":"m 882 972 b 892 931 900 972 906 943 b 839 692 872 913 845 857 l 839 14 b 826 0 839 6 833 0 b 815 5 822 0 818 2 l 118 875 l 118 280 b 172 41 124 115 151 59 b 161 0 186 29 180 0 b 55 0 146 0 71 0 b 45 41 37 0 31 29 b 98 280 66 59 93 115 l 98 900 l 64 943 b 79 972 55 955 63 972 l 268 972 b 286 964 275 972 281 969 l 819 297 l 819 692 b 766 931 814 857 787 913 b 776 972 752 943 758 972 b 882 972 792 972 866 972 m 356 1071 b 329 1071 356 1048 329 1052 b 401 1161 329 1137 355 1161 b 582 1137 456 1161 582 1062 b 609 1137 582 1158 609 1155 b 542 1045 609 1118 609 1045 b 356 1071 464 1045 356 1147 "},"Ò":{"ha":986,"x_min":0,"x_max":0,"o":"m 493 991 b 950 486 745 991 950 765 b 493 -18 950 207 745 -18 b 36 486 241 -18 36 207 b 493 991 36 765 241 991 m 493 -2 b 756 486 638 -2 756 217 b 493 974 756 755 638 974 b 230 486 348 974 230 755 b 493 -2 230 217 348 -2 m 405 1155 b 415 1177 398 1163 404 1177 l 492 1177 b 504 1167 498 1177 503 1172 l 532 1039 b 525 1030 533 1034 529 1030 b 519 1032 523 1030 521 1031 "},"Ó":{"ha":986,"x_min":0,"x_max":0,"o":"m 493 991 b 950 486 745 991 950 765 b 493 -18 950 207 745 -18 b 36 486 241 -18 36 207 b 493 991 36 765 241 991 m 493 -2 b 756 486 638 -2 756 217 b 493 974 756 755 638 974 b 230 486 348 974 230 755 b 493 -2 230 217 348 -2 m 462 1030 b 454 1039 457 1030 453 1034 l 482 1167 b 494 1177 483 1172 488 1177 l 572 1177 b 581 1155 583 1177 588 1163 l 467 1032 b 462 1030 466 1031 464 1030 "},"Ô":{"ha":986,"x_min":0,"x_max":0,"o":"m 493 991 b 950 486 745 991 950 765 b 493 -18 950 207 745 -18 b 36 486 241 -18 36 207 b 493 991 36 765 241 991 m 493 -2 b 756 486 638 -2 756 217 b 493 974 756 755 638 974 b 230 486 348 974 230 755 b 493 -2 230 217 348 -2 m 417 1030 b 410 1039 412 1030 409 1034 l 437 1167 b 450 1177 439 1172 444 1177 l 536 1177 b 548 1167 542 1177 547 1172 l 576 1039 b 569 1030 577 1034 573 1030 b 563 1032 567 1030 565 1031 l 493 1109 l 422 1032 b 417 1030 421 1031 419 1030 "},"Õ":{"ha":986,"x_min":0,"x_max":0,"o":"m 493 991 b 950 486 745 991 950 765 b 493 -18 950 207 745 -18 b 36 486 241 -18 36 207 b 493 991 36 765 241 991 m 493 -2 b 756 486 638 -2 756 217 b 493 974 756 755 638 974 b 230 486 348 974 230 755 b 493 -2 230 217 348 -2 m 380 1071 b 353 1071 380 1048 353 1052 b 425 1161 353 1137 379 1161 b 606 1137 480 1161 606 1062 b 633 1137 606 1158 633 1155 b 566 1045 633 1118 633 1045 b 380 1071 488 1045 380 1147 "},"Ö":{"ha":986,"x_min":0,"x_max":0,"o":"m 493 991 b 950 486 745 991 950 765 b 493 -18 950 207 745 -18 b 36 486 241 -18 36 207 b 493 991 36 765 241 991 m 493 -2 b 756 486 638 -2 756 217 b 493 974 756 755 638 974 b 230 486 348 974 230 755 b 493 -2 230 217 348 -2 m 402 1032 b 331 1103 363 1032 331 1063 b 401 1174 330 1142 362 1174 b 473 1104 440 1175 472 1143 b 402 1032 473 1065 441 1032 m 585 1032 b 513 1103 545 1032 513 1063 b 584 1174 513 1142 544 1174 b 655 1104 623 1175 655 1143 b 585 1032 655 1065 624 1032 "},"×":{"ha":449,"x_min":0,"x_max":0,"o":"m 386 380 b 386 342 397 369 397 352 l 368 324 b 331 324 358 314 341 314 l 224 430 l 118 324 b 80 324 107 314 90 314 l 62 342 b 62 380 52 352 52 369 l 168 486 l 62 592 b 62 630 52 603 52 620 l 80 648 b 118 648 90 659 107 659 l 224 542 l 331 648 b 368 648 341 659 358 659 l 386 630 b 386 592 397 620 397 603 l 280 486 "},"Ø":{"ha":986,"x_min":0,"x_max":0,"o":"m 665 953 b 950 486 832 878 950 697 b 493 -18 950 207 745 -18 b 367 1 449 -18 407 -12 l 356 -36 b 332 -54 352 -47 343 -54 b 308 -21 315 -54 303 -37 l 320 19 b 36 486 154 94 36 275 b 493 991 36 765 241 991 b 618 971 536 991 578 984 l 630 1008 b 654 1026 633 1019 643 1026 l 654 1026 b 678 993 671 1026 683 1010 l 665 953 m 605 928 b 493 974 571 957 533 974 b 230 486 348 974 230 755 b 342 87 230 321 274 175 m 493 -2 b 756 486 638 -2 756 217 b 644 885 756 651 712 797 l 381 45 b 493 -2 415 15 453 -2 "},"Ù":{"ha":888,"x_min":0,"x_max":0,"o":"m 836 970 b 847 931 854 966 860 943 b 793 692 826 913 799 857 l 793 311 b 482 -18 793 56 735 -18 b 89 311 230 -18 89 56 l 89 692 b 42 925 84 842 61 902 b 61 972 27 943 38 972 b 310 972 72 972 300 972 b 330 925 333 972 344 943 b 282 692 310 902 287 842 l 282 311 b 482 -2 282 86 337 -2 b 773 311 735 -2 773 91 l 773 692 b 720 931 768 857 741 913 b 730 970 706 943 712 966 b 836 970 746 973 821 973 m 398 1155 b 407 1177 390 1163 396 1177 l 484 1177 b 496 1167 490 1177 495 1172 l 524 1039 b 517 1030 525 1034 521 1030 b 511 1032 515 1030 513 1031 "},"Ú":{"ha":888,"x_min":0,"x_max":0,"o":"m 836 970 b 847 931 854 966 860 943 b 793 692 826 913 799 857 l 793 311 b 482 -18 793 56 735 -18 b 89 311 230 -18 89 56 l 89 692 b 42 925 84 842 61 902 b 61 972 27 943 38 972 b 310 972 72 972 300 972 b 330 925 333 972 344 943 b 282 692 310 902 287 842 l 282 311 b 482 -2 282 86 337 -2 b 773 311 735 -2 773 91 l 773 692 b 720 931 768 857 741 913 b 730 970 706 943 712 966 b 836 970 746 973 821 973 m 528 1030 b 521 1039 524 1030 520 1034 l 549 1167 b 561 1177 550 1172 555 1177 l 639 1177 b 648 1155 650 1177 655 1163 l 534 1032 b 528 1030 532 1031 531 1030 "},"Û":{"ha":888,"x_min":0,"x_max":0,"o":"m 836 970 b 847 931 854 966 860 943 b 793 692 826 913 799 857 l 793 311 b 482 -18 793 56 735 -18 b 89 311 230 -18 89 56 l 89 692 b 42 925 84 842 61 902 b 61 972 27 943 38 972 b 310 972 72 972 300 972 b 330 925 333 972 344 943 b 282 692 310 902 287 842 l 282 311 b 482 -2 282 86 337 -2 b 773 311 735 -2 773 91 l 773 692 b 720 931 768 857 741 913 b 730 970 706 943 712 966 b 836 970 746 973 821 973 m 442 1030 b 435 1039 437 1030 434 1034 l 462 1167 b 475 1177 464 1172 469 1177 l 561 1177 b 573 1167 567 1177 572 1172 l 601 1039 b 594 1030 602 1034 598 1030 b 588 1032 592 1030 590 1031 l 518 1109 l 447 1032 b 442 1030 446 1031 444 1030 "},"Ü":{"ha":888,"x_min":0,"x_max":0,"o":"m 836 970 b 847 931 854 966 860 943 b 793 692 826 913 799 857 l 793 311 b 482 -18 793 56 735 -18 b 89 311 230 -18 89 56 l 89 692 b 42 925 84 842 61 902 b 61 972 27 943 38 972 b 310 972 72 972 300 972 b 330 925 333 972 344 943 b 282 692 310 902 287 842 l 282 311 b 482 -2 282 86 337 -2 b 773 311 735 -2 773 91 l 773 692 b 720 931 768 857 741 913 b 730 970 706 943 712 966 b 836 970 746 973 821 973 m 446 1032 b 374 1103 406 1032 374 1063 b 445 1174 374 1142 405 1174 b 516 1104 484 1174 516 1143 b 446 1032 516 1065 485 1032 m 628 1032 b 557 1103 589 1032 557 1063 b 627 1174 556 1142 588 1174 b 699 1104 666 1174 698 1143 b 628 1032 699 1065 667 1032 "},"Ý":{"ha":706,"x_min":0,"x_max":0,"o":"m 687 971 b 697 926 710 968 717 938 b 561 703 665 905 613 849 l 448 377 l 448 280 b 499 43 453 122 478 64 b 485 0 513 29 505 0 b 218 0 471 0 232 0 b 204 43 197 0 189 29 b 254 280 224 64 249 122 l 254 377 l 144 698 b 7 926 92 848 40 905 b 18 972 -12 939 -5 972 b 297 972 30 972 278 972 b 309 929 313 972 318 942 b 336 703 295 910 283 856 l 439 403 l 541 701 b 573 930 594 859 587 912 b 587 969 563 944 570 965 b 687 971 603 973 674 973 m 438 1030 b 431 1039 433 1030 430 1034 l 459 1167 b 471 1177 460 1172 465 1177 l 548 1177 b 557 1155 559 1177 565 1163 l 443 1032 b 438 1030 442 1031 440 1030 "},"Þ":{"ha":796,"x_min":0,"x_max":0,"o":"m 430 700 b 780 496 736 700 780 576 b 430 272 780 412 734 272 l 290 272 b 333 51 294 137 308 89 b 308 0 348 29 334 0 b 77 0 300 0 85 0 b 52 51 51 0 37 29 b 96 280 78 90 91 138 l 96 692 b 52 921 91 834 78 882 b 77 972 37 943 51 972 b 308 972 85 972 300 972 b 333 921 334 972 348 943 b 290 700 308 883 294 835 b 430 700 366 700 430 700 m 430 292 b 587 486 534 292 587 384 b 430 680 587 606 534 680 l 289 680 l 289 292 l 430 292 "},"ß":{"ha":849,"x_min":0,"x_max":0,"o":"m 444 501 b 826 123 444 414 826 272 b 564 -18 826 12 694 -18 b 349 60 462 -18 369 31 b 351 74 346 65 347 70 l 428 133 b 453 117 439 141 457 142 b 563 -4 449 97 463 -4 b 685 100 631 -4 685 39 b 309 502 685 211 309 366 b 375 557 309 547 338 557 b 578 758 541 557 578 656 b 382 952 578 879 489 952 b 281 847 343 952 281 931 l 281 280 b 325 51 286 138 299 90 b 300 0 339 29 326 0 b 69 0 292 0 76 0 b 43 51 43 0 29 29 b 87 280 69 90 83 138 l 87 756 b 382 972 87 888 242 972 b 772 736 688 972 772 831 b 531 552 772 652 716 552 b 444 501 480 552 444 544 "},"à":{"ha":793,"x_min":0,"x_max":0,"o":"m 750 48 b 730 0 765 30 753 2 b 704 0 720 -1 711 0 b 510 20 704 0 568 59 l 510 20 b 368 -18 479 -2 433 -18 b 33 185 135 -18 33 55 b 375 437 33 343 234 387 b 510 535 448 463 505 488 l 510 535 l 510 542 b 368 690 510 657 442 690 b 224 551 260 690 224 613 b 181 510 224 509 195 504 b 94 555 174 513 120 541 b 88 574 87 559 85 567 b 368 710 107 617 172 710 b 704 542 546 710 704 676 l 704 279 b 750 48 709 133 731 73 m 368 2 b 510 53 435 2 480 26 l 510 493 b 415 430 491 469 457 446 b 227 176 314 392 227 303 b 368 2 227 58 298 2 m 277 877 b 286 899 269 885 275 899 l 363 899 b 376 889 369 899 374 894 l 403 761 b 396 752 404 756 401 752 b 391 754 394 752 392 753 "},"á":{"ha":793,"x_min":0,"x_max":0,"o":"m 750 48 b 730 0 765 30 753 2 b 704 0 720 -1 711 0 b 510 20 704 0 568 59 l 510 20 b 368 -18 479 -2 433 -18 b 33 185 135 -18 33 55 b 375 437 33 343 234 387 b 510 535 448 463 505 488 l 510 535 l 510 542 b 368 690 510 657 442 690 b 224 551 260 690 224 613 b 181 510 224 509 195 504 b 94 555 174 513 120 541 b 88 574 87 559 85 567 b 368 710 107 617 172 710 b 704 542 546 710 704 676 l 704 279 b 750 48 709 133 731 73 m 368 2 b 510 53 435 2 480 26 l 510 493 b 415 430 491 469 457 446 b 227 176 314 392 227 303 b 368 2 227 58 298 2 m 388 752 b 381 761 383 752 380 756 l 408 889 b 421 899 410 894 415 899 l 498 899 b 507 877 509 899 515 885 l 393 754 b 388 752 392 753 390 752 "},"â":{"ha":793,"x_min":0,"x_max":0,"o":"m 750 48 b 730 0 765 30 753 2 b 704 0 720 -1 711 0 b 510 20 704 0 568 59 l 510 20 b 368 -18 479 -2 433 -18 b 33 185 135 -18 33 55 b 375 437 33 343 234 387 b 510 535 448 463 505 488 l 510 535 l 510 542 b 368 690 510 657 442 690 b 224 551 260 690 224 613 b 181 510 224 509 195 504 b 94 555 174 513 120 541 b 88 574 87 559 85 567 b 368 710 107 617 172 710 b 704 542 546 710 704 676 l 704 279 b 750 48 709 133 731 73 m 368 2 b 510 53 435 2 480 26 l 510 493 b 415 430 491 469 457 446 b 227 176 314 392 227 303 b 368 2 227 58 298 2 m 319 752 b 312 761 315 752 311 756 l 340 889 b 352 899 341 894 346 899 l 438 899 b 451 889 444 899 449 894 l 478 761 b 471 752 479 756 476 752 b 466 754 469 752 467 753 l 395 831 l 325 754 b 319 752 323 753 321 752 "},"ã":{"ha":793,"x_min":0,"x_max":0,"o":"m 750 48 b 730 0 765 30 753 2 b 704 0 720 -1 711 0 b 510 20 704 0 568 59 l 510 20 b 368 -18 479 -2 433 -18 b 33 185 135 -18 33 55 b 375 437 33 343 234 387 b 510 535 448 463 505 488 l 510 535 l 510 542 b 368 690 510 657 442 690 b 224 551 260 690 224 613 b 181 510 224 509 195 504 b 94 555 174 513 120 541 b 88 574 87 559 85 567 b 368 710 107 617 172 710 b 704 542 546 710 704 676 l 704 279 b 750 48 709 133 731 73 m 368 2 b 510 53 435 2 480 26 l 510 493 b 415 430 491 469 457 446 b 227 176 314 392 227 303 b 368 2 227 58 298 2 m 282 793 b 255 793 282 770 255 774 b 327 883 255 859 282 883 b 508 859 383 883 508 784 b 535 859 508 880 535 877 b 468 767 535 840 536 767 b 282 793 390 767 282 869 "},"ä":{"ha":793,"x_min":0,"x_max":0,"o":"m 750 48 b 730 0 765 30 753 2 b 704 0 720 -1 711 0 b 510 20 704 0 568 59 l 510 20 b 368 -18 479 -2 433 -18 b 33 185 135 -18 33 55 b 375 437 33 343 234 387 b 510 535 448 463 505 488 l 510 535 l 510 542 b 368 690 510 657 442 690 b 224 551 260 690 224 613 b 181 510 224 509 195 504 b 94 555 174 513 120 541 b 88 574 87 559 85 567 b 368 710 107 617 172 710 b 704 542 546 710 704 676 l 704 279 b 750 48 709 133 731 73 m 368 2 b 510 53 435 2 480 26 l 510 493 b 415 430 491 469 457 446 b 227 176 314 392 227 303 b 368 2 227 58 298 2 m 278 754 b 206 825 239 754 207 785 b 277 896 206 864 238 896 b 349 826 316 897 348 865 b 278 754 349 787 317 754 m 461 754 b 389 825 421 754 389 785 b 460 896 389 864 420 896 b 531 826 499 897 531 865 b 461 754 531 787 500 754 "},"å":{"ha":793,"x_min":0,"x_max":0,"o":"m 750 48 b 730 0 765 30 753 2 b 704 0 720 -1 711 0 b 510 20 704 0 568 59 l 510 20 b 368 -18 479 -2 433 -18 b 33 185 135 -18 33 55 b 375 437 33 343 234 387 b 510 535 448 463 505 488 l 510 535 l 510 542 b 368 690 510 657 442 690 b 224 551 260 690 224 613 b 181 510 224 509 195 504 b 94 555 174 513 120 541 b 88 574 87 559 85 567 b 368 710 107 617 172 710 b 704 542 546 710 704 676 l 704 279 b 750 48 709 133 731 73 m 368 2 b 510 53 435 2 480 26 l 510 493 b 415 430 491 469 457 446 b 227 176 314 392 227 303 b 368 2 227 58 298 2 m 369 738 b 281 825 321 737 281 776 b 368 913 281 873 320 913 b 456 826 417 913 456 874 b 369 738 457 777 418 738 m 368 892 b 302 825 331 892 302 862 b 369 758 302 788 332 758 b 436 826 406 759 436 789 b 368 892 435 863 405 892 "},"æ":{"ha":1204,"x_min":0,"x_max":0,"o":"m 1175 151 b 882 -18 1140 74 1061 -18 b 871 -18 878 -18 875 -18 b 870 -18 871 -18 871 -18 b 510 20 703 -15 566 58 l 510 20 b 368 -18 479 -2 433 -18 b 33 185 135 -18 33 55 b 375 437 33 343 234 387 b 510 535 448 463 505 488 l 510 535 l 510 542 b 368 690 510 657 442 690 b 224 551 260 690 224 613 b 181 510 224 509 195 504 b 94 555 174 513 120 541 b 88 574 87 559 85 567 b 368 710 107 617 172 710 b 654 647 485 710 594 695 b 867 710 710 687 782 710 b 1142 542 1026 710 1142 638 b 919 399 1142 458 1096 399 l 918 399 l 917 399 l 706 399 b 704 346 705 381 704 364 b 973 39 704 156 846 39 b 1164 157 1068 39 1129 93 m 867 690 b 709 419 801 690 727 574 l 820 419 b 867 690 996 419 936 690 m 368 2 b 510 53 435 2 480 26 l 510 493 b 415 430 491 469 457 446 b 227 176 314 392 227 303 b 368 2 227 58 298 2 "},"ç":{"ha":731,"x_min":0,"x_max":0,"o":"m 705 148 b 435 -20 672 75 598 -13 b 442 -54 439 -30 442 -41 b 346 -146 442 -108 391 -134 b 456 -251 397 -149 456 -166 b 323 -371 456 -348 386 -371 b 202 -257 238 -371 202 -320 b 209 -250 202 -253 205 -250 b 269 -250 212 -250 266 -250 b 278 -270 279 -251 281 -261 b 323 -364 263 -312 275 -364 b 378 -265 344 -364 378 -355 b 291 -155 378 -164 329 -156 b 291 -155 291 -155 291 -155 l 290 -155 b 285 -151 287 -155 285 -154 b 290 -147 285 -149 287 -147 l 292 -147 b 296 -147 293 -147 294 -147 b 363 -54 323 -145 363 -124 b 361 -18 363 -40 362 -28 b 40 343 149 3 40 157 b 396 707 40 544 171 707 b 672 539 556 707 672 636 b 536 431 672 473 616 437 b 450 474 484 427 433 440 b 396 687 489 553 445 687 b 234 343 320 687 234 533 b 503 37 234 153 376 37 b 694 154 598 37 659 90 l 705 148 "},"è":{"ha":733,"x_min":0,"x_max":0,"o":"m 705 151 b 412 -18 670 74 591 -18 b 40 346 167 -18 40 145 b 396 710 40 547 171 710 b 672 542 556 710 672 638 b 449 399 672 458 626 399 l 448 399 l 447 399 l 236 399 b 234 346 235 381 234 364 b 503 39 234 156 376 39 b 694 157 598 39 659 93 m 396 690 b 238 419 330 690 257 574 l 350 419 b 396 690 526 419 465 690 m 286 877 b 296 899 279 885 285 899 l 373 899 b 385 889 379 899 384 894 l 413 761 b 406 752 414 756 410 752 b 400 754 404 752 402 753 "},"é":{"ha":733,"x_min":0,"x_max":0,"o":"m 705 151 b 412 -18 670 74 591 -18 b 40 346 167 -18 40 145 b 396 710 40 547 171 710 b 672 542 556 710 672 638 b 449 399 672 458 626 399 l 448 399 l 447 399 l 236 399 b 234 346 235 381 234 364 b 503 39 234 156 376 39 b 694 157 598 39 659 93 m 396 690 b 238 419 330 690 257 574 l 350 419 b 396 690 526 419 465 690 m 409 752 b 402 761 404 752 401 756 l 430 889 b 442 899 431 894 436 899 l 519 899 b 528 877 530 899 536 885 l 414 754 b 409 752 413 753 411 752 "},"ê":{"ha":733,"x_min":0,"x_max":0,"o":"m 705 151 b 412 -18 670 74 591 -18 b 40 346 167 -18 40 145 b 396 710 40 547 171 710 b 672 542 556 710 672 638 b 449 399 672 458 626 399 l 448 399 l 447 399 l 236 399 b 234 346 235 381 234 364 b 503 39 234 156 376 39 b 694 157 598 39 659 93 m 396 690 b 238 419 330 690 257 574 l 350 419 b 396 690 526 419 465 690 m 297 752 b 290 761 292 752 289 756 l 317 889 b 330 899 319 894 324 899 l 416 899 b 428 889 422 899 427 894 l 456 761 b 449 752 457 756 453 752 b 443 754 447 752 445 753 l 373 831 l 302 754 b 297 752 301 753 299 752 "},"ë":{"ha":733,"x_min":0,"x_max":0,"o":"m 705 151 b 412 -18 670 74 591 -18 b 40 346 167 -18 40 145 b 396 710 40 547 171 710 b 672 542 556 710 672 638 b 449 399 672 458 626 399 l 448 399 l 447 399 l 236 399 b 234 346 235 381 234 364 b 503 39 234 156 376 39 b 694 157 598 39 659 93 m 396 690 b 238 419 330 690 257 574 l 350 419 b 396 690 526 419 465 690 m 299 754 b 228 825 260 754 228 785 b 298 896 227 864 259 896 b 370 826 337 897 369 865 b 299 754 370 787 338 754 m 482 754 b 410 825 442 754 410 785 b 481 896 410 864 441 896 b 552 826 520 897 552 865 b 482 754 552 787 521 754 "},"ì":{"ha":378,"x_min":0,"x_max":0,"o":"m 334 47 b 314 -2 349 28 338 -2 b 69 -2 303 -2 79 -2 b 48 47 45 -2 33 28 b 94 278 68 71 90 131 b 94 387 94 314 94 351 b 48 585 90 533 68 560 b 69 633 33 603 45 631 b 94 633 79 634 88 633 b 261 682 145 633 172 646 b 288 664 274 688 288 678 l 288 278 b 334 47 293 131 315 71 m 107 877 b 116 899 99 885 105 899 l 193 899 b 205 889 199 899 204 894 l 233 761 b 226 752 234 756 231 752 b 221 754 224 752 222 753 "},"í":{"ha":378,"x_min":0,"x_max":0,"o":"m 334 47 b 314 -2 349 28 338 -2 b 69 -2 303 -2 79 -2 b 48 47 45 -2 33 28 b 94 278 68 71 90 131 b 94 387 94 314 94 351 b 48 585 90 533 68 560 b 69 633 33 603 45 631 b 94 633 79 634 88 633 b 261 682 145 633 172 646 b 288 664 274 688 288 678 l 288 278 b 334 47 293 131 315 71 m 134 752 b 126 761 129 752 125 756 l 154 889 b 166 899 155 894 161 899 l 244 899 b 253 877 255 899 260 885 l 139 754 b 134 752 138 753 136 752 "},"î":{"ha":378,"x_min":0,"x_max":0,"o":"m 334 47 b 314 -2 349 28 338 -2 b 69 -2 303 -2 79 -2 b 48 47 45 -2 33 28 b 94 278 68 71 90 131 b 94 387 94 314 94 351 b 48 585 90 533 68 560 b 69 633 33 603 45 631 b 94 633 79 634 88 633 b 261 682 145 633 172 646 b 288 664 274 688 288 678 l 288 278 b 334 47 293 131 315 71 m 98 752 b 91 761 93 752 90 756 l 118 889 b 131 899 120 894 125 899 l 217 899 b 229 889 223 899 228 894 l 257 761 b 250 752 258 756 254 752 b 244 754 248 752 246 753 l 174 831 l 103 754 b 98 752 102 753 100 752 "},"ï":{"ha":378,"x_min":0,"x_max":0,"o":"m 288 278 b 334 47 293 131 315 71 b 314 -2 349 28 338 -2 b 69 -2 303 -2 79 -2 b 48 47 45 -2 34 28 b 95 278 68 71 90 131 b 95 387 95 314 95 351 b 48 585 90 533 68 560 b 70 633 33 603 46 631 b 95 633 79 634 88 633 b 261 682 146 633 173 646 b 288 664 274 688 288 678 l 288 278 m 101 754 b 29 825 61 754 29 785 b 100 896 29 864 60 896 b 171 826 139 897 171 865 b 101 754 171 787 140 754 m 283 754 b 212 825 244 754 212 785 b 282 896 211 864 243 896 b 354 826 321 897 353 865 b 283 754 354 787 322 754 "},"ð":{"ha":815,"x_min":0,"x_max":0,"o":"m 535 950 b 764 407 659 892 764 750 b 422 -18 764 92 606 -18 b 422 -18 422 -18 422 -18 b 422 -18 422 -18 422 -18 b 47 346 172 -18 47 145 b 379 699 47 547 196 699 b 556 643 441 699 504 682 b 467 895 538 769 505 847 l 88 586 b 58 584 80 579 67 578 b 57 625 44 594 43 614 l 432 930 b 293 970 380 972 326 970 b 209 808 208 970 190 868 b 188 760 216 785 212 760 b 81 864 146 760 81 805 b 293 991 81 941 154 991 b 481 970 350 991 416 989 l 596 1064 b 625 1065 604 1071 616 1071 l 626 1065 b 627 1025 640 1056 641 1036 l 535 950 m 422 2 b 571 407 499 2 571 146 b 559 621 571 490 566 560 b 412 681 516 660 461 681 b 241 346 259 681 241 536 b 422 2 241 156 290 2 "},"ñ":{"ha":844,"x_min":0,"x_max":0,"o":"m 804 48 b 783 0 819 30 807 0 b 539 0 771 0 551 0 b 518 48 515 0 503 30 b 564 280 538 73 560 133 l 564 493 b 441 662 564 600 506 662 b 288 610 406 662 344 651 l 288 279 b 334 48 293 133 315 73 b 314 0 349 30 338 0 b 69 0 301 0 79 0 b 48 48 45 0 33 30 b 94 279 68 73 90 133 b 94 389 94 316 94 353 b 48 586 90 535 68 562 b 69 634 33 605 45 633 b 94 634 79 635 88 635 b 261 684 145 634 172 648 b 288 666 274 689 288 680 l 288 624 b 512 710 353 672 433 710 b 758 493 695 710 758 616 l 758 493 l 758 280 l 758 280 b 804 48 763 133 785 73 m 313 793 b 286 793 313 770 286 774 b 358 883 286 859 313 883 b 539 859 414 883 539 784 b 566 859 539 880 566 877 b 499 767 566 840 567 767 b 313 793 421 767 313 869 "},"ò":{"ha":818,"x_min":0,"x_max":0,"o":"m 409 710 b 780 346 614 710 780 547 b 409 -18 780 145 614 -18 b 38 346 204 -18 38 145 b 409 710 38 547 204 710 m 409 2 b 563 346 494 2 563 156 b 409 690 563 536 494 690 b 254 346 324 690 254 536 b 409 2 254 156 324 2 m 288 877 b 297 899 281 885 286 899 l 374 899 b 387 889 380 899 385 894 l 414 761 b 407 752 415 756 412 752 b 402 754 405 752 403 753 "},"ó":{"ha":818,"x_min":0,"x_max":0,"o":"m 409 710 b 780 346 614 710 780 547 b 409 -18 780 145 614 -18 b 38 346 204 -18 38 145 b 409 710 38 547 204 710 m 409 2 b 563 346 494 2 563 156 b 409 690 563 536 494 690 b 254 346 324 690 254 536 b 409 2 254 156 324 2 m 410 752 b 403 761 405 752 402 756 l 430 889 b 443 899 432 894 437 899 l 520 899 b 529 877 531 899 537 885 l 415 754 b 410 752 414 753 412 752 "},"ô":{"ha":818,"x_min":0,"x_max":0,"o":"m 409 710 b 780 346 614 710 780 547 b 409 -18 780 145 614 -18 b 38 346 204 -18 38 145 b 409 710 38 547 204 710 m 409 2 b 563 346 494 2 563 156 b 409 690 563 536 494 690 b 254 346 324 690 254 536 b 409 2 254 156 324 2 m 333 752 b 326 761 328 752 325 756 l 353 889 b 366 899 355 894 360 899 l 452 899 b 464 889 458 899 463 894 l 492 761 b 485 752 493 756 489 752 b 479 754 483 752 481 753 l 409 831 l 338 754 b 333 752 337 753 335 752 "},"õ":{"ha":818,"x_min":0,"x_max":0,"o":"m 409 710 b 780 346 614 710 780 547 b 409 -18 780 145 614 -18 b 38 346 204 -18 38 145 b 409 710 38 547 204 710 m 409 2 b 563 346 494 2 563 156 b 409 690 563 536 494 690 b 254 346 324 690 254 536 b 409 2 254 156 324 2 m 310 793 b 283 793 310 770 283 774 b 355 883 283 859 310 883 b 536 859 411 883 536 784 b 563 859 536 880 563 877 b 496 767 563 840 564 767 b 310 793 418 767 310 869 "},"ö":{"ha":818,"x_min":0,"x_max":0,"o":"m 409 710 b 780 346 614 710 780 547 b 409 -18 780 145 614 -18 b 38 346 204 -18 38 145 b 409 710 38 547 204 710 m 409 2 b 563 346 494 2 563 156 b 409 690 563 536 494 690 b 254 346 324 690 254 536 b 409 2 254 156 324 2 m 318 754 b 247 825 279 754 247 785 b 317 896 246 864 278 896 b 389 826 356 897 388 865 b 318 754 389 787 357 754 m 501 754 b 429 825 461 754 429 785 b 500 896 429 864 460 896 b 571 826 539 897 571 865 b 501 754 571 787 540 754 "},"÷":{"ha":519,"x_min":0,"x_max":0,"o":"m 304 541 b 174 585 256 517 198 537 b 217 715 150 632 169 691 b 347 671 265 738 323 719 b 304 541 371 623 352 565 m 289 93 b 167 155 238 76 184 104 b 230 277 151 206 179 260 b 352 215 281 293 335 266 b 289 93 368 164 340 109 m 450 446 b 476 419 464 446 476 434 l 476 394 b 450 367 476 379 464 367 l 70 367 b 43 394 55 367 43 379 l 43 419 b 70 446 43 434 55 446 l 450 446 "},"ø":{"ha":818,"x_min":0,"x_max":0,"o":"m 541 686 b 780 346 681 633 780 501 b 409 -18 780 145 614 -18 b 324 -9 380 -18 351 -15 l 272 -177 b 248 -194 268 -187 259 -194 b 224 -162 231 -194 219 -178 l 276 6 b 38 346 137 58 38 190 b 409 710 38 547 204 710 b 493 700 438 710 466 706 l 546 868 b 570 886 549 879 559 886 l 570 886 b 594 853 587 886 599 869 l 541 686 m 479 653 b 409 690 458 676 434 690 b 254 346 324 690 254 536 b 304 94 254 246 273 157 m 409 2 b 563 346 494 2 563 156 b 514 598 563 445 544 535 l 339 39 b 409 2 360 15 384 2 "},"ù":{"ha":844,"x_min":0,"x_max":0,"o":"m 800 99 b 779 50 815 80 803 52 b 754 50 770 50 761 50 b 588 1 703 50 676 37 b 561 19 575 -4 561 5 l 561 73 b 332 -19 501 24 421 -19 b 86 198 149 -19 86 75 b 86 389 86 257 86 324 b 40 586 81 535 59 562 b 61 634 25 605 37 633 b 86 634 71 635 80 635 b 253 684 137 634 164 647 b 280 665 266 689 280 679 l 280 198 b 403 50 280 91 338 50 b 561 93 439 50 504 55 b 561 389 561 93 561 341 b 514 586 556 535 534 562 b 536 634 499 605 512 633 b 561 634 545 635 554 635 b 727 684 612 634 639 647 b 754 665 740 689 754 679 l 754 296 b 800 99 759 150 781 123 m 317 877 b 326 899 310 885 315 899 l 404 899 b 416 889 410 899 415 894 l 444 761 b 437 752 445 756 441 752 b 431 754 434 752 433 753 "},"ú":{"ha":844,"x_min":0,"x_max":0,"o":"m 800 99 b 779 50 815 80 803 52 b 754 50 770 50 761 50 b 588 1 703 50 676 37 b 561 19 575 -4 561 5 l 561 73 b 332 -19 501 24 421 -19 b 86 198 149 -19 86 75 b 86 389 86 257 86 324 b 40 586 81 535 59 562 b 61 634 25 605 37 633 b 86 634 71 635 80 635 b 253 684 137 634 164 647 b 280 665 266 689 280 679 l 280 198 b 403 50 280 91 338 50 b 561 93 439 50 504 55 b 561 389 561 93 561 341 b 514 586 556 535 534 562 b 536 634 499 605 512 633 b 561 634 545 635 554 635 b 727 684 612 634 639 647 b 754 665 740 689 754 679 l 754 296 b 800 99 759 150 781 123 m 391 752 b 384 761 387 752 383 756 l 412 889 b 424 899 413 894 418 899 l 502 899 b 511 877 512 899 518 885 l 397 754 b 391 752 395 753 393 752 "},"û":{"ha":844,"x_min":0,"x_max":0,"o":"m 800 99 b 779 50 815 80 803 52 b 754 50 770 50 761 50 b 588 1 703 50 676 37 b 561 19 575 -4 561 5 l 561 73 b 332 -19 501 24 421 -19 b 86 198 149 -19 86 75 b 86 389 86 257 86 324 b 40 586 81 535 59 562 b 61 634 25 605 37 633 b 86 634 71 635 80 635 b 253 684 137 634 164 647 b 280 665 266 689 280 679 l 280 198 b 403 50 280 91 338 50 b 561 93 439 50 504 55 b 561 389 561 93 561 341 b 514 586 556 535 534 562 b 536 634 499 605 512 633 b 561 634 545 635 554 635 b 727 684 612 634 639 647 b 754 665 740 689 754 679 l 754 296 b 800 99 759 150 781 123 m 344 752 b 337 761 340 752 336 756 l 365 889 b 377 899 366 894 371 899 l 463 899 b 476 889 469 899 474 894 l 503 761 b 496 752 504 756 501 752 b 491 754 494 752 492 753 l 420 831 l 350 754 b 344 752 348 753 346 752 "},"ü":{"ha":844,"x_min":0,"x_max":0,"o":"m 800 99 b 779 50 815 80 803 52 b 754 50 770 50 761 50 b 588 1 703 50 676 37 b 561 19 575 -4 561 5 l 561 73 b 332 -19 501 24 421 -19 b 86 198 149 -19 86 75 b 86 389 86 257 86 324 b 40 586 81 535 59 562 b 61 634 25 605 37 633 b 86 634 71 635 80 635 b 253 684 137 634 164 647 b 280 665 266 689 280 679 l 280 198 b 403 50 280 91 338 50 b 561 93 439 50 504 55 b 561 389 561 93 561 341 b 514 586 556 535 534 562 b 536 634 499 605 512 633 b 561 634 545 635 554 635 b 727 684 612 634 639 647 b 754 665 740 689 754 679 l 754 296 b 800 99 759 150 781 123 m 329 754 b 258 825 290 754 258 785 b 328 896 258 864 289 896 b 400 826 368 897 400 865 b 329 754 400 787 369 754 m 512 754 b 440 825 473 754 441 785 b 511 896 440 864 472 896 b 582 826 550 897 582 865 b 512 754 583 787 551 754 "},"ý":{"ha":636,"x_min":0,"x_max":0,"o":"m 602 691 b 623 644 626 691 638 662 b 485 437 603 619 577 676 l 328 0 b -17 -347 328 0 235 -313 b -60 -307 -40 -350 -61 -331 l -56 -215 b -19 -178 -55 -195 -39 -176 b 308 0 244 -210 308 0 l 153 429 l 153 429 b 13 644 94 594 32 619 b 33 691 -2 662 10 691 b 278 691 52 691 255 691 b 299 644 302 691 314 662 b 296 572 288 630 286 610 l 405 270 l 465 437 b 511 644 523 598 530 619 b 531 691 496 662 507 691 b 602 691 541 691 589 691 m 378 752 b 371 761 373 752 370 756 l 399 889 b 411 898 400 894 405 898 l 488 898 b 497 877 499 898 505 885 l 383 754 b 378 752 382 753 380 752 "},"þ":{"ha":772,"x_min":0,"x_max":0,"o":"m 401 710 b 732 346 584 710 732 547 b 401 -18 732 145 584 -18 b 263 14 352 -18 305 -7 l 263 -1 b 309 -232 268 -147 290 -208 b 289 -280 324 -251 313 -280 b 44 -280 276 -280 54 -280 b 23 -232 20 -280 8 -251 b 69 -1 43 -208 65 -147 b 69 675 69 126 69 553 b 23 873 65 822 43 849 b 44 921 8 892 20 920 b 69 921 54 922 63 922 b 236 971 120 921 147 934 b 263 952 249 976 263 966 l 263 638 b 401 710 294 679 339 710 m 401 2 b 538 346 477 2 538 156 b 401 690 538 536 477 690 b 263 605 361 690 306 675 l 263 320 b 401 2 268 142 328 2 "},"ÿ":{"ha":636,"x_min":0,"x_max":0,"o":"m 602 691 b 623 644 626 691 638 662 b 485 437 603 619 577 676 l 328 0 b -17 -347 328 0 235 -313 b -60 -307 -40 -350 -61 -331 l -56 -215 b -19 -178 -55 -195 -39 -176 b 308 0 244 -210 308 0 l 153 429 l 153 429 b 13 644 94 594 32 619 b 33 691 -2 662 10 691 b 278 691 52 691 255 691 b 299 644 302 691 314 662 b 296 572 288 630 286 610 l 405 270 l 465 437 b 511 644 523 598 530 619 b 531 691 496 662 507 691 b 602 691 541 691 589 691 m 303 754 b 231 825 264 754 232 785 b 302 896 231 864 263 896 b 373 826 341 896 373 865 b 303 754 374 786 342 754 m 485 754 b 414 825 446 754 414 785 b 484 896 414 864 445 896 b 556 826 524 896 556 865 b 485 754 556 786 525 754 "},"Œ":{"ha":1488,"x_min":0,"x_max":0,"o":"m 1423 241 b 1457 20 1436 208 1457 20 l 1457 18 b 1439 0 1457 8 1449 0 b 739 0 1439 0 747 0 b 710 42 717 0 704 22 b 493 -18 645 4 571 -18 b 36 486 241 -18 36 208 b 493 991 36 765 241 991 b 710 930 571 991 645 969 b 739 972 704 950 717 972 b 1408 972 747 972 1408 972 b 1426 954 1418 972 1426 964 l 1426 952 b 1426 952 1426 952 1426 952 b 1392 731 1426 951 1405 763 b 1339 725 1382 709 1352 706 b 1087 952 1314 762 1261 946 l 952 952 l 952 527 l 1020 527 b 1248 571 1161 531 1209 545 b 1299 545 1270 585 1299 571 b 1299 488 1299 538 1299 496 b 1248 463 1299 462 1270 448 b 1020 507 1209 489 1161 502 l 952 507 l 952 20 l 1128 20 b 1370 246 1294 32 1346 210 b 1423 241 1384 266 1413 263 m 493 -2 b 756 486 638 -2 756 217 b 493 974 756 755 638 974 b 230 486 348 974 230 755 b 493 -2 230 217 348 -2 "},"œ":{"ha":1288,"x_min":0,"x_max":0,"o":"m 1259 151 b 966 -18 1224 74 1145 -18 b 681 96 839 -18 744 26 b 409 -21 614 24 517 -21 b 37 343 204 -21 37 142 b 409 707 37 544 204 707 b 679 593 515 707 611 663 b 951 710 740 665 832 710 b 1226 542 1110 710 1226 638 b 1003 399 1226 458 1180 399 l 1002 399 l 1001 399 l 790 399 b 788 346 789 381 788 364 b 1057 39 788 156 930 39 b 1248 157 1152 39 1213 93 m 951 690 b 793 419 885 690 811 574 l 904 419 b 951 690 1080 419 1020 690 m 409 -1 b 563 343 494 -1 563 153 b 409 687 563 533 494 687 b 254 343 324 687 254 533 b 409 -1 254 153 324 -1 "},"Š":{"ha":919,"x_min":0,"x_max":0,"o":"m 492 583 b 890 250 684 528 890 424 b 456 -19 890 90 703 -19 b 37 149 200 -19 75 92 b 41 174 31 157 33 168 l 154 262 b 200 231 174 278 192 279 b 455 -2 208 184 263 -2 b 696 216 602 -2 696 85 b 444 474 696 344 599 434 b 33 773 250 524 33 593 b 425 990 33 925 213 990 b 840 823 682 990 801 880 b 836 797 845 815 844 804 l 736 715 b 690 746 716 700 706 700 b 426 974 668 808 618 974 b 227 782 315 974 227 884 b 492 583 227 695 303 638 m 362 1168 b 369 1177 361 1172 364 1177 b 375 1174 371 1177 373 1176 l 445 1098 l 516 1174 b 521 1177 517 1176 519 1177 b 528 1168 526 1177 529 1172 l 500 1040 b 488 1030 499 1034 494 1030 l 402 1030 b 390 1040 396 1030 391 1034 "},"š":{"ha":717,"x_min":0,"x_max":0,"o":"m 380 416 b 684 176 510 360 684 301 b 324 -18 684 24 502 -18 b 29 90 184 -18 57 49 b 32 108 25 96 26 104 l 138 191 b 172 168 153 202 178 202 b 324 2 167 140 185 2 b 490 145 416 2 490 61 b 338 325 490 237 452 276 b 59 553 206 382 59 423 b 353 709 59 662 175 709 b 642 600 493 709 614 641 b 639 582 646 594 645 586 l 543 504 b 510 526 529 493 504 492 b 353 689 515 554 492 689 b 220 582 280 689 220 656 b 380 416 220 520 249 472 m 272 890 b 279 898 271 894 274 898 b 285 896 281 898 283 898 l 355 820 l 426 896 b 431 898 427 898 429 898 b 438 890 436 898 439 894 l 410 762 b 398 752 409 756 404 752 l 312 752 b 300 762 306 752 301 756 "},"Ÿ":{"ha":706,"x_min":0,"x_max":0,"o":"m 687 971 b 697 926 710 968 717 938 b 561 703 665 905 613 849 l 448 377 l 448 280 b 499 43 453 122 478 64 b 485 0 513 29 505 0 b 218 0 471 0 232 0 b 204 43 197 0 189 29 b 254 280 224 64 249 122 l 254 377 l 144 698 b 7 926 92 848 40 905 b 18 972 -12 939 -5 972 b 297 972 30 972 278 972 b 309 929 313 972 318 942 b 336 703 295 910 283 856 l 439 403 l 541 701 b 573 930 594 859 587 912 b 587 969 563 944 570 965 b 687 971 603 973 674 973 m 334 1032 b 262 1103 294 1032 262 1063 b 333 1174 262 1142 293 1174 b 404 1104 372 1174 404 1143 b 334 1032 404 1065 373 1032 m 516 1032 b 445 1103 477 1032 445 1063 b 515 1174 444 1142 476 1174 b 587 1104 554 1174 586 1143 b 516 1032 587 1065 555 1032 "},"Ž":{"ha":853,"x_min":0,"x_max":0,"o":"m 791 292 b 825 20 805 259 826 34 b 805 0 825 9 816 0 l 38 0 b 25 24 26 0 18 14 l 619 952 l 384 952 b 131 675 210 946 156 712 b 79 680 118 655 88 658 b 45 952 65 713 44 939 b 65 972 45 963 54 972 l 797 972 b 810 948 809 972 816 958 l 216 20 l 486 20 b 738 297 660 26 713 261 b 791 292 752 317 782 314 m 353 1168 b 361 1177 352 1172 356 1177 b 366 1174 363 1177 365 1176 l 437 1098 l 507 1174 b 513 1177 509 1176 511 1177 b 520 1168 517 1177 521 1172 l 492 1040 b 480 1030 491 1034 486 1030 l 393 1030 b 381 1040 388 1030 382 1034 "},"ž":{"ha":638,"x_min":0,"x_max":0,"o":"m 574 174 b 609 20 588 141 610 34 l 609 18 b 590 0 609 8 601 0 l 39 0 b 28 19 29 0 23 11 l 404 671 l 378 671 b 126 512 204 666 151 549 b 73 518 112 493 82 496 b 39 671 59 550 38 658 l 39 673 b 57 691 39 683 47 691 l 581 692 b 595 667 594 692 602 678 l 222 20 l 269 20 b 522 179 444 26 497 142 b 574 174 535 199 565 196 m 234 890 b 242 898 233 894 237 898 b 247 896 244 898 246 898 l 318 820 l 388 896 b 394 898 390 898 392 898 b 401 890 398 898 402 894 l 373 762 b 361 752 372 756 367 752 l 274 752 b 262 762 269 752 263 756 "},"":{"ha":1679,"x_min":0,"x_max":0,"o":"m 1625 970 b 1635 931 1643 966 1648 943 b 1582 692 1614 913 1587 857 l 1582 0 l 1562 0 l 1562 0 b 1058 629 1562 0 1186 469 b 596 974 930 789 787 974 b 227 486 373 974 227 756 b 490 -1 227 217 345 -1 b 753 486 635 -1 753 217 b 525 915 753 747 663 904 b 517 924 520 916 517 919 b 526 932 517 929 521 933 b 947 486 771 926 947 760 b 490 -18 947 208 742 -18 b 33 486 238 -18 33 208 b 596 991 33 763 273 991 b 1239 701 704 991 1027 957 b 1562 297 1342 575 1562 297 l 1562 692 b 1508 932 1556 858 1529 913 b 1519 970 1495 944 1501 966 b 1625 970 1534 973 1609 973 "},"":{"ha":1669,"x_min":0,"x_max":0,"o":"m 1648 47 b 1628 0 1663 29 1651 2 b 1359 0 1618 -1 1370 -1 b 1340 46 1336 2 1325 29 b 1308 242 1360 70 1386 51 l 1185 542 b 1184 548 1184 544 1184 546 b 1201 565 1184 557 1192 565 l 1248 565 b 1405 758 1352 565 1405 656 b 1248 952 1405 879 1352 952 l 1090 952 l 1090 375 b 1037 322 1090 346 1066 322 b 868 322 1037 322 879 321 b 849 369 845 324 834 351 b 896 602 869 392 891 452 l 896 692 b 849 925 891 842 869 902 b 868 972 834 943 845 970 b 1248 972 879 973 1248 972 b 1599 768 1555 972 1599 849 b 1374 554 1599 698 1566 587 l 1508 225 b 1648 47 1572 69 1628 70 m 1154 247 b 1206 241 1167 266 1197 263 b 1240 21 1220 209 1241 41 b 1240 21 1240 21 1240 21 b 1240 20 1240 20 1240 20 l 1240 18 b 1222 0 1240 8 1232 0 b 359 0 1222 0 698 0 l 359 0 b 77 0 212 0 80 0 b 52 51 51 0 37 29 b 96 280 78 90 91 138 l 96 692 b 52 921 91 834 78 882 b 77 972 37 943 51 972 b 745 972 85 972 745 972 b 763 954 755 972 763 964 l 763 952 b 763 951 763 952 763 952 b 729 731 763 951 743 763 b 677 725 720 709 690 706 b 424 952 651 762 598 946 l 289 952 l 289 386 b 606 570 343 489 549 570 b 637 545 632 570 637 558 b 637 488 637 537 637 495 b 586 462 637 462 607 448 b 289 365 498 520 341 463 l 289 20 l 359 20 l 359 20 l 901 20 b 1154 247 1075 26 1129 210 "},"":{"ha":1514,"x_min":0,"x_max":0,"o":"m 1501 54 b 1480 0 1523 35 1509 -1 b 1242 1 1475 0 1254 -1 b 1219 48 1220 3 1207 28 b 1199 280 1232 71 1239 130 l 1146 476 l 932 476 l 884 297 b 842 266 879 279 862 266 b 808 265 839 265 812 265 b 809 320 779 265 763 294 b 924 521 845 340 884 379 b 1029 913 947 602 1029 913 l 1020 946 b 1040 972 1017 959 1027 972 l 1191 972 b 1211 957 1200 972 1209 966 l 1393 280 l 1393 280 b 1501 54 1430 142 1471 81 m 1141 496 l 1039 876 l 937 496 m 963 247 b 1016 241 977 266 1006 263 b 1050 18 1029 209 1050 18 b 1032 0 1050 8 1042 0 b 77 0 1032 0 80 0 b 52 51 51 0 37 29 b 96 280 78 90 91 138 l 96 692 b 52 921 91 834 78 882 b 77 972 37 943 51 972 b 745 972 85 972 745 972 b 763 954 755 972 763 964 l 763 952 b 763 952 763 952 763 952 b 729 731 763 951 743 763 b 677 725 720 709 690 706 b 424 952 651 762 598 946 l 289 952 l 289 386 b 606 571 343 489 549 571 b 637 545 632 571 637 558 b 637 488 637 538 637 496 b 586 463 637 462 607 448 b 289 365 498 521 341 463 l 289 20 l 711 20 b 963 247 885 26 938 210 "},"":{"ha":1268,"x_min":0,"x_max":0,"o":"m 1256 54 b 1234 0 1277 35 1263 -1 b 997 1 1230 0 1009 -1 b 974 48 975 3 962 28 b 954 280 987 71 994 130 l 901 476 l 687 476 l 639 297 b 597 266 634 279 617 266 b 563 265 594 265 567 265 b 564 320 534 265 518 294 b 679 521 600 340 639 379 b 784 913 702 602 784 913 l 775 946 b 795 972 772 959 782 972 l 946 972 b 966 957 955 972 963 966 l 1148 280 l 1148 280 b 1256 54 1185 142 1225 81 m 896 496 l 794 876 l 692 496 m 718 247 b 771 241 731 266 761 263 b 805 21 784 209 805 41 b 805 21 805 21 805 21 b 805 20 805 20 805 20 l 805 18 b 787 0 805 8 797 0 b 78 0 787 0 85 0 b 52 51 52 1 37 30 b 96 280 71 77 92 139 l 96 692 b 52 921 92 834 71 895 b 77 973 37 942 52 972 b 309 973 80 973 308 973 b 334 921 335 972 349 942 b 290 692 315 895 294 834 l 290 20 l 466 20 b 718 247 640 26 693 210 "},"":{"ha":1569,"x_min":0,"x_max":0,"o":"m 1503 240 b 1538 20 1517 208 1538 20 l 1538 18 b 1519 0 1538 8 1529 0 l 820 0 b 795 51 794 0 780 29 b 839 280 821 90 834 138 l 839 921 l 479 9 b 465 0 477 4 471 0 b 452 9 459 0 454 4 l 119 854 l 119 280 b 168 44 124 124 148 66 b 153 0 183 29 174 0 b 64 0 140 0 77 0 b 49 44 43 0 34 29 b 98 280 69 66 94 124 l 98 692 b 49 928 94 848 69 906 b 64 972 34 943 43 972 l 249 972 b 272 957 259 972 268 966 l 552 246 l 831 952 b 861 972 836 964 848 972 b 1488 972 1006 972 1488 972 b 1506 954 1498 972 1506 964 l 1506 952 b 1507 951 1507 952 1507 952 b 1472 731 1507 951 1486 763 b 1420 725 1463 709 1433 706 b 1167 952 1395 762 1342 946 l 1033 952 l 1033 386 b 1349 570 1086 489 1292 570 b 1380 545 1375 570 1380 558 l 1380 488 b 1331 461 1380 462 1352 447 b 1033 365 1243 521 1084 464 l 1033 20 l 1208 20 b 1451 246 1375 32 1426 210 b 1503 240 1464 266 1494 262 "},"":{"ha":1557,"x_min":0,"x_max":0,"o":"m 1130 583 b 1528 250 1322 528 1528 424 b 1042 -18 1528 90 1289 -18 b 446 323 786 -18 524 34 l 406 476 l 191 476 l 139 280 b 141 43 96 117 126 62 b 127 0 153 28 146 0 b 31 0 112 0 35 0 b 11 54 2 0 -11 35 b 119 280 41 81 82 143 l 119 280 l 289 913 l 280 946 b 300 972 276 959 286 972 l 451 972 b 471 957 460 972 468 966 l 640 323 b 640 323 640 323 640 323 l 640 323 b 640 323 640 323 640 323 l 640 323 b 1041 -2 679 173 832 -2 b 1334 217 1188 -2 1334 85 b 1082 474 1334 344 1237 434 b 671 773 888 524 671 593 b 1063 990 671 925 851 990 b 1478 823 1320 990 1439 880 b 1474 798 1483 815 1482 804 l 1374 715 b 1327 746 1354 700 1343 700 b 1064 974 1306 808 1256 974 b 865 782 953 974 865 885 b 1130 583 865 696 941 638 m 401 496 l 299 876 l 197 496 "},"":{"ha":1833,"x_min":0,"x_max":0,"o":"m 1343 991 b 1800 486 1595 991 1800 765 b 1237 -18 1800 209 1560 -18 b 594 272 1129 -18 806 15 b 375 545 537 341 446 455 l 292 545 l 292 280 b 339 47 297 130 320 70 b 320 0 354 29 343 0 b 70 0 310 0 82 0 b 51 47 47 0 36 29 b 98 280 71 70 94 130 l 98 692 b 51 925 94 842 71 902 b 70 972 36 943 47 972 b 451 972 81 972 451 972 b 801 768 757 972 801 849 b 602 559 801 701 771 598 b 775 344 671 473 735 393 b 1237 -1 903 184 1045 -1 b 1606 486 1460 -1 1606 217 b 1343 974 1606 756 1488 974 b 1080 486 1198 974 1080 756 b 1308 57 1080 226 1170 69 b 1316 49 1313 57 1316 53 b 1307 40 1316 44 1312 40 b 886 486 1062 46 886 213 b 1343 991 886 765 1091 991 m 475 566 b 607 758 563 580 607 664 b 451 952 607 879 555 952 l 292 952 l 292 565 l 451 565 b 465 565 455 565 460 565 l 475 566 "},"":{"ha":1717,"x_min":0,"x_max":0,"o":"m 1225 991 b 1682 486 1478 991 1682 765 b 1120 -18 1682 209 1443 -18 b 435 272 1011 -18 647 15 b 333 397 407 306 371 350 l 291 345 l 291 280 l 291 280 b 339 46 296 129 319 69 b 320 0 354 29 343 0 b 69 0 309 0 80 0 b 50 46 46 0 35 29 b 98 280 70 69 93 129 l 98 692 b 54 921 93 834 80 882 b 79 972 39 943 53 972 b 310 972 87 972 302 972 b 335 921 336 972 350 943 b 291 692 309 882 296 834 l 291 370 l 552 698 b 549 925 654 825 569 902 b 568 972 534 943 545 972 b 820 972 580 972 808 972 b 838 925 842 972 853 943 b 615 751 819 903 708 866 l 452 547 b 615 344 518 466 577 391 b 1120 -1 744 184 928 -1 b 1488 486 1343 -1 1488 217 b 1225 974 1488 756 1371 974 b 962 486 1080 974 962 756 b 1191 57 962 226 1053 69 b 1199 49 1195 57 1199 53 b 1190 40 1199 44 1195 40 b 769 486 944 46 769 213 b 1225 991 769 765 973 991 "},"":{"ha":863,"x_min":0,"x_max":0,"o":"m 735 182 b 787 177 748 202 778 199 b 809 20 801 144 810 34 b 789 0 809 9 800 0 b 73 0 789 0 82 0 b 51 48 49 0 36 29 b 97 280 70 73 92 133 l 97 692 b 51 924 92 839 70 899 b 73 972 36 943 49 971 b 315 972 82 973 306 973 b 337 924 339 971 352 943 b 291 692 317 899 295 839 l 291 20 l 469 20 b 735 182 644 26 710 146 m 547 295 b 521 346 521 295 507 324 b 565 574 547 385 561 433 l 565 693 b 521 921 561 834 547 882 b 547 972 507 943 521 972 b 778 972 554 972 770 972 b 803 921 804 972 817 943 b 759 693 777 882 764 834 l 759 574 l 759 574 b 803 346 764 433 777 385 b 778 295 817 324 804 295 b 547 295 770 295 554 295 "},"":{"ha":1704,"x_min":0,"x_max":0,"o":"m 1213 991 b 1670 486 1465 991 1670 765 b 1107 -18 1670 209 1430 -18 b 38 0 1010 -18 633 0 b 25 24 26 0 18 14 l 619 952 l 384 952 b 131 675 210 946 156 712 b 79 680 118 655 88 658 b 45 952 65 713 44 939 b 65 972 45 963 54 972 l 797 972 b 810 948 809 972 816 958 l 216 20 b 1107 -1 477 20 923 -1 b 1476 486 1330 -1 1476 217 b 1213 974 1476 756 1358 974 b 950 486 1068 974 950 756 b 1178 57 950 226 1040 69 b 1186 49 1183 57 1186 53 b 1178 40 1186 44 1182 40 b 756 486 932 46 756 213 b 1213 991 756 765 961 991 "},"":{"ha":1701,"x_min":0,"x_max":0,"o":"m 1211 991 b 1668 486 1463 991 1668 765 b 1105 -18 1668 209 1428 -18 b 342 469 871 -18 589 28 l 231 274 l 231 274 b 174 25 147 126 174 62 b 140 0 174 5 159 0 b 30 0 125 0 40 0 b 19 45 5 0 -1 33 b 205 263 55 67 125 122 l 204 262 l 332 486 l 205 710 l 205 709 b 20 927 125 850 55 906 b 30 972 -1 939 5 972 b 314 972 40 972 299 972 b 336 929 333 972 341 972 b 405 698 331 893 321 846 l 472 580 l 539 698 l 539 698 b 597 946 641 879 597 919 b 629 972 597 965 611 972 b 740 972 645 972 730 972 b 750 927 765 972 771 939 b 565 709 715 906 645 850 l 566 710 l 482 563 b 1105 -1 665 241 813 -1 b 1474 486 1328 -1 1474 217 b 1211 974 1474 756 1356 974 b 948 486 1066 974 948 756 b 1176 57 948 226 1038 69 b 1184 49 1181 57 1184 53 b 1176 40 1184 44 1180 40 b 754 486 930 46 754 213 b 1211 991 754 765 959 991 "},"":{"ha":1599,"x_min":0,"x_max":0,"o":"m 1548 970 b 1559 932 1566 966 1572 944 b 1505 692 1538 913 1511 858 l 1505 597 b 1254 268 1505 342 1435 268 b 907 597 1025 268 907 342 l 907 692 b 860 925 902 842 880 902 b 879 972 845 943 856 972 b 1129 972 890 972 1118 972 b 1148 925 1152 972 1163 943 b 1101 692 1128 902 1106 842 l 1101 597 b 1254 284 1101 372 1129 284 b 1485 597 1433 284 1485 377 l 1485 692 b 1432 932 1480 858 1453 913 b 1442 970 1418 944 1424 966 b 1548 970 1458 973 1533 973 m 1430 247 b 1483 241 1444 266 1473 263 b 1517 18 1496 209 1517 18 b 1499 0 1517 8 1509 0 b 77 0 1499 0 80 0 b 52 51 51 0 37 29 b 96 280 78 90 91 138 l 96 692 b 52 921 91 834 78 882 b 77 972 37 943 51 972 b 745 972 85 972 745 972 b 763 954 755 972 763 964 l 763 952 b 763 952 763 952 763 952 b 729 731 763 951 743 763 b 677 725 720 709 690 706 b 424 952 651 762 598 946 l 289 952 l 289 386 b 606 571 343 489 549 571 b 637 545 632 571 637 558 b 637 488 637 538 637 496 b 586 463 637 462 607 448 b 289 365 498 521 341 463 l 289 20 l 1178 20 b 1430 247 1352 26 1405 210 "},"":{"ha":1694,"x_min":0,"x_max":0,"o":"m 1230 268 b 803 629 1022 268 803 350 b 1230 991 803 908 1052 991 b 1658 629 1421 991 1658 908 b 1230 268 1658 350 1415 268 m 1239 974 b 996 629 1145 974 996 898 b 1230 284 996 360 1123 284 b 1465 629 1337 284 1465 360 b 1239 974 1465 898 1340 974 m 1483 247 b 1536 241 1496 266 1526 263 b 1570 18 1549 209 1570 18 b 1552 0 1570 8 1562 0 b 77 0 1552 0 80 0 b 52 51 51 0 37 29 b 96 280 78 90 91 138 l 96 692 b 52 921 91 834 78 882 b 77 972 37 943 51 972 b 745 972 85 972 745 972 b 763 954 755 972 763 964 l 763 952 b 763 952 763 952 763 952 b 729 731 763 951 743 763 b 677 725 720 709 690 706 b 424 952 651 762 598 946 l 289 952 l 289 386 b 606 571 343 489 549 571 b 637 545 632 571 637 558 b 637 488 637 538 637 496 b 586 463 637 462 607 448 b 289 365 498 521 341 463 l 289 20 l 1231 20 b 1483 247 1405 26 1458 210 "},"":{"ha":1344,"x_min":0,"x_max":0,"o":"m 867 268 b 440 629 659 268 440 350 b 867 991 440 908 689 991 b 1296 629 1058 991 1296 908 b 867 268 1296 350 1052 268 m 876 974 b 633 629 782 974 633 898 b 867 284 633 360 760 284 b 1102 629 974 284 1102 360 b 876 974 1102 898 977 974 m 1222 182 b 1274 177 1235 202 1265 199 b 1295 20 1288 144 1296 34 b 1275 0 1295 9 1287 0 b 73 0 1275 0 82 0 b 51 48 49 0 36 29 b 97 280 70 73 92 133 l 97 692 b 51 924 92 839 70 899 b 73 972 36 943 49 971 b 315 972 82 973 306 973 b 337 924 339 971 352 943 b 291 692 317 899 295 839 l 291 20 l 956 20 b 1222 182 1131 26 1197 146 "},"":{"ha":1250,"x_min":0,"x_max":0,"o":"m 550 692 b 503 925 545 842 523 902 b 522 972 488 943 499 972 b 772 972 533 972 761 972 b 791 925 795 972 806 943 b 744 692 771 902 748 842 l 744 597 b 897 284 744 372 772 284 b 1128 597 1076 284 1128 377 l 1128 692 b 1075 932 1123 858 1096 913 b 1085 970 1061 944 1067 966 b 1191 970 1100 973 1175 973 b 1201 932 1209 966 1215 944 b 1148 692 1180 913 1153 858 l 1148 597 b 897 268 1148 342 1077 268 b 550 597 667 268 550 342 l 550 692 m 1135 182 b 1187 177 1148 202 1178 199 b 1209 20 1201 144 1210 34 b 1189 0 1209 9 1200 0 b 73 0 1189 0 82 0 b 51 48 49 0 36 29 b 97 280 70 73 92 133 l 97 692 b 51 924 92 839 70 899 b 73 972 36 943 49 971 b 315 972 82 973 306 973 b 337 924 339 971 352 943 b 291 692 317 899 295 839 l 291 20 l 869 20 b 1135 182 1044 26 1110 146 "},"":{"ha":1782,"x_min":0,"x_max":0,"o":"m 940 692 b 893 925 935 842 913 901 b 912 972 878 943 889 972 b 1162 972 923 972 1151 972 b 1181 925 1185 972 1196 943 b 1134 692 1161 901 1139 842 l 1134 311 b 1171 84 1134 208 1145 134 b 1154 61 1178 72 1167 58 b 980 128 1090 75 1033 98 b 974 135 977 130 975 132 b 940 311 951 181 940 238 l 940 692 m 1688 970 b 1698 931 1706 966 1712 943 b 1645 692 1677 913 1650 857 l 1645 311 b 1334 -18 1645 56 1586 -18 b 411 469 984 -18 658 28 l 300 274 l 300 274 b 243 25 216 126 243 62 b 210 0 243 5 228 0 b 99 0 194 0 109 0 b 89 45 75 0 68 33 b 274 263 125 67 194 122 l 274 262 l 401 486 l 274 710 l 274 709 b 89 927 194 850 125 906 b 100 972 68 939 75 972 b 384 972 109 972 368 972 b 405 929 402 972 411 972 b 474 698 401 893 390 846 l 541 580 l 608 698 l 608 698 b 666 946 710 879 666 919 b 699 972 666 965 680 972 b 809 972 715 972 800 972 b 820 927 834 972 841 939 b 634 709 784 906 715 850 l 635 710 l 551 563 b 1334 -1 734 241 929 -1 b 1625 311 1586 -1 1625 91 l 1625 692 b 1571 931 1619 857 1592 913 b 1582 970 1558 943 1564 966 b 1688 970 1597 973 1672 973 "}}}
